<svg width="61" height="61" viewBox="0 0 61 61" fill="none" xmlns="http://www.w3.org/2000/svg">
<rect width="61" height="61" rx="10" fill="#FF0000" fill-opacity="0.42"/>
<path d="M11.5142 48.77C12.4959 48.77 13.2725 49.0514 13.8438 49.6143C14.415 50.1729 14.7007 50.9663 14.7007 51.9946V52.9341H10.124C10.141 53.48 10.3039 53.9095 10.6128 54.2227C10.9217 54.5316 11.3491 54.686 11.895 54.686C12.3436 54.686 12.7562 54.6416 13.1328 54.5527C13.5094 54.4596 13.8988 54.3179 14.3008 54.1274V55.6255C13.9453 55.799 13.575 55.9259 13.1899 56.0063C12.8091 56.0868 12.3457 56.127 11.7998 56.127C11.0973 56.127 10.471 55.9958 9.9209 55.7334C9.37077 55.471 8.93913 55.0732 8.62598 54.54C8.31706 54.0068 8.1626 53.3276 8.1626 52.5024C8.1626 51.6772 8.30436 50.9875 8.58789 50.4331C8.86719 49.8787 9.25863 49.464 9.76221 49.189C10.2658 48.9097 10.8498 48.77 11.5142 48.77ZM11.5269 50.1475C11.146 50.1475 10.835 50.2702 10.5938 50.5156C10.3525 50.7568 10.2087 51.1335 10.1621 51.6455H12.8789C12.8704 51.2223 12.7562 50.8669 12.5361 50.5791C12.3161 50.2913 11.9797 50.1475 11.5269 50.1475ZM18.5156 48.9033H20.1914V50.3569H18.5156V56H16.5796V50.3569H15.5132V49.4238L16.5796 48.9033V48.3828C16.5796 47.7777 16.6812 47.3079 16.8843 46.9736C17.0874 46.6393 17.3773 46.4023 17.7539 46.2627C18.1305 46.123 18.5749 46.0532 19.0869 46.0532C19.4593 46.0532 19.8021 46.085 20.1152 46.1484C20.4284 46.2077 20.6802 46.2754 20.8706 46.3516L20.3755 47.7734C20.2274 47.7269 20.0645 47.6846 19.8867 47.6465C19.709 47.6084 19.5122 47.5894 19.2964 47.5894C19.0256 47.5894 18.8267 47.6719 18.6997 47.8369C18.577 48.002 18.5156 48.2093 18.5156 48.459V48.9033ZM23.543 48.9033H25.2188V50.3569H23.543V56H21.6069V50.3569H20.5405V49.4238L21.6069 48.9033V48.3828C21.6069 47.7777 21.7085 47.3079 21.9116 46.9736C22.1147 46.6393 22.4046 46.4023 22.7812 46.2627C23.1579 46.123 23.6022 46.0532 24.1143 46.0532C24.4867 46.0532 24.8294 46.085 25.1426 46.1484C25.4557 46.2077 25.7075 46.2754 25.8979 46.3516L25.4028 47.7734C25.2547 47.7269 25.0918 47.6846 24.9141 47.6465C24.7363 47.6084 24.5396 47.5894 24.3237 47.5894C24.0529 47.5894 23.854 47.6719 23.7271 47.8369C23.6043 48.002 23.543 48.2093 23.543 48.459V48.9033ZM29.2368 48.7573C30.1932 48.7573 30.9232 48.9647 31.4268 49.3794C31.9346 49.7899 32.1885 50.4204 32.1885 51.271V56H30.8364L30.4619 55.0352H30.4111C30.1064 55.4202 29.7848 55.6995 29.4463 55.873C29.1077 56.0423 28.6444 56.127 28.0562 56.127C27.4256 56.127 26.9009 55.945 26.4819 55.5811C26.0672 55.2171 25.8599 54.6501 25.8599 53.8799C25.8599 53.1266 26.1243 52.5723 26.6533 52.2168C27.1823 51.8613 27.9757 51.6624 29.0337 51.6201L30.2651 51.582V51.271C30.2651 50.8944 30.1678 50.6214 29.9731 50.4521C29.7785 50.2786 29.5076 50.1919 29.1606 50.1919C28.8136 50.1919 28.4751 50.2427 28.145 50.3442C27.8192 50.4416 27.4912 50.5622 27.1611 50.7061L26.52 49.3984C26.8966 49.208 27.3177 49.0535 27.7832 48.9351C28.2529 48.8166 28.7375 48.7573 29.2368 48.7573ZM30.2651 53.2959V52.7119L29.5098 52.7373C28.8877 52.7542 28.4539 52.8664 28.2085 53.0737C27.9673 53.2811 27.8467 53.554 27.8467 53.8926C27.8467 54.1888 27.9334 54.4004 28.1069 54.5273C28.2804 54.6501 28.5068 54.7114 28.7861 54.7114C29.2008 54.7114 29.55 54.5887 29.8335 54.3433C30.1213 54.0978 30.2651 53.7487 30.2651 53.2959ZM37.0571 56.127C35.9992 56.127 35.1825 55.8371 34.6069 55.2573C34.0314 54.6776 33.7437 53.755 33.7437 52.4897C33.7437 51.618 33.8918 50.9113 34.188 50.3696C34.48 49.8237 34.8883 49.4217 35.4131 49.1636C35.9378 48.9012 36.543 48.77 37.2285 48.77C37.7152 48.77 38.1383 48.8187 38.498 48.916C38.8577 49.0091 39.1709 49.1213 39.4375 49.2524L38.8662 50.7505C38.5615 50.6278 38.2759 50.5283 38.0093 50.4521C37.7469 50.3717 37.4867 50.3315 37.2285 50.3315C36.2214 50.3315 35.7178 51.0467 35.7178 52.4771C35.7178 53.188 35.849 53.7127 36.1113 54.0513C36.3779 54.3898 36.7503 54.5591 37.2285 54.5591C37.6348 54.5591 37.9945 54.5041 38.3076 54.394C38.6208 54.284 38.9233 54.1338 39.2153 53.9434V55.6001C38.9233 55.7905 38.6144 55.9259 38.2886 56.0063C37.9627 56.0868 37.5522 56.127 37.0571 56.127ZM43.7729 48.77C44.7547 48.77 45.5312 49.0514 46.1025 49.6143C46.6738 50.1729 46.9595 50.9663 46.9595 51.9946V52.9341H42.3828C42.3997 53.48 42.5627 53.9095 42.8716 54.2227C43.1805 54.5316 43.6079 54.686 44.1538 54.686C44.6024 54.686 45.015 54.6416 45.3916 54.5527C45.7682 54.4596 46.1576 54.3179 46.5596 54.1274V55.6255C46.2041 55.799 45.8338 55.9259 45.4487 56.0063C45.0679 56.0868 44.6045 56.127 44.0586 56.127C43.3561 56.127 42.7298 55.9958 42.1797 55.7334C41.6296 55.471 41.1979 55.0732 40.8848 54.54C40.5758 54.0068 40.4214 53.3276 40.4214 52.5024C40.4214 51.6772 40.5632 50.9875 40.8467 50.4331C41.126 49.8787 41.5174 49.464 42.021 49.189C42.5246 48.9097 43.1086 48.77 43.7729 48.77ZM43.7856 50.1475C43.4048 50.1475 43.0938 50.2702 42.8525 50.5156C42.6113 50.7568 42.4674 51.1335 42.4209 51.6455H45.1377C45.1292 51.2223 45.015 50.8669 44.7949 50.5791C44.5749 50.2913 44.2384 50.1475 43.7856 50.1475ZM52.4946 48.77C52.5877 48.77 52.6999 48.7743 52.8311 48.7827C52.9622 48.7912 53.0659 48.806 53.1421 48.8271L53.0024 50.6426C52.9305 50.6257 52.8374 50.6108 52.7231 50.5981C52.6131 50.5854 52.5137 50.5791 52.4248 50.5791C52.099 50.5791 51.7837 50.6362 51.479 50.7505C51.1743 50.869 50.9289 51.0594 50.7427 51.3218C50.5565 51.5799 50.4634 51.9354 50.4634 52.3882V56H48.5273V48.9033H49.9937L50.2793 50.0967H50.3745C50.5819 49.7327 50.8675 49.4217 51.2314 49.1636C51.5954 48.9012 52.0164 48.77 52.4946 48.77Z" fill="#050505"/>
<path d="M30.0384 6C31.2411 5.99991 32.3983 6.5175 33.2725 7.44658C34.1468 8.37566 34.6718 9.6458 34.7399 10.9964L34.7471 11.2963H42.3535C42.6288 11.2964 42.8938 11.414 43.095 11.6254C43.2961 11.8368 43.4185 12.1263 43.4372 12.4352C43.456 12.7442 43.3698 13.0496 43.1961 13.2898C43.0223 13.53 42.774 13.6871 42.5012 13.7293L42.3535 13.7407H41.2002L39.3457 34.9585C39.2528 36.0163 38.8286 37.0025 38.1489 37.7411C37.4693 38.4796 36.5783 38.9223 35.6352 38.9902L35.3802 39H24.6966C23.7511 39 22.8365 38.6218 22.1162 37.9331C21.3959 37.2443 20.9167 36.29 20.7644 35.2404L20.7311 34.9569L18.8752 13.7407H17.7233C17.4608 13.7407 17.2071 13.6338 17.0092 13.4396C16.8113 13.2455 16.6826 12.9773 16.6469 12.6847L16.6367 12.5185C16.6367 12.2232 16.7318 11.9378 16.9044 11.7152C17.077 11.4926 17.3154 11.3479 17.5756 11.3077L17.7233 11.2963H25.3297C25.3297 9.89163 25.8258 8.5445 26.7088 7.55125C27.5919 6.558 28.7896 6 30.0384 6V6ZM39.0168 13.7407H21.0585L22.8942 34.7173C22.9349 35.1854 23.1182 35.6232 23.4132 35.9565C23.7082 36.2898 24.0966 36.498 24.5126 36.5458L24.6966 36.5556H35.3802C36.2495 36.5556 36.987 35.863 37.1551 34.9227L37.184 34.7173L39.0154 13.7407H39.0168ZM32.5739 18.2222C32.8364 18.2222 33.0901 18.3292 33.288 18.5233C33.4859 18.7175 33.6146 18.9856 33.6503 19.2782L33.6605 19.4444V30.8519C33.6604 31.1615 33.5558 31.4596 33.3679 31.6859C33.1799 31.9122 32.9226 32.0497 32.6479 32.0709C32.3732 32.092 32.1017 31.995 31.8881 31.7996C31.6746 31.6042 31.5349 31.3249 31.4974 31.0181L31.4872 30.8519V19.4444C31.4872 19.1203 31.6017 18.8094 31.8055 18.5802C32.0093 18.351 32.2857 18.2222 32.5739 18.2222ZM27.5029 18.2222C27.7655 18.2222 28.0192 18.3292 28.2171 18.5233C28.415 18.7175 28.5437 18.9856 28.5794 19.2782L28.5896 19.4444V30.8519C28.5895 31.1615 28.4849 31.4596 28.2969 31.6859C28.109 31.9122 27.8517 32.0497 27.577 32.0709C27.3023 32.092 27.0308 31.995 26.8172 31.7996C26.6036 31.6042 26.464 31.3249 26.4265 31.0181L26.4163 30.8519V19.4444C26.4163 19.1203 26.5308 18.8094 26.7346 18.5802C26.9384 18.351 27.2148 18.2222 27.5029 18.2222ZM30.0384 8.44444C29.4021 8.44447 28.789 8.71361 28.321 9.19844C27.8529 9.68327 27.564 10.3483 27.5116 11.0616L27.5029 11.2963H32.5739C32.5739 10.5399 32.3067 9.81456 31.8312 9.27973C31.3557 8.74491 30.7108 8.44444 30.0384 8.44444Z" fill="#050505"/>
</svg>
