<svg width="60" height="61" viewBox="0 0 60 61" fill="none" xmlns="http://www.w3.org/2000/svg">
<rect width="60" height="61" rx="10" fill="#0085FF" fill-opacity="0.43"/>
<path d="M14.3946 48.772C15.0532 48.772 15.6166 48.8977 16.0846 49.149C16.5612 49.4003 16.9296 49.7643 17.1896 50.241C17.4496 50.7177 17.5796 51.3027 17.5796 51.996V52.932H13.0036C13.0209 53.478 13.1812 53.907 13.4846 54.219C13.7966 54.531 14.2256 54.687 14.7716 54.687C15.2309 54.687 15.6469 54.6437 16.0196 54.557C16.3922 54.4617 16.7779 54.3187 17.1766 54.128V55.623C16.8299 55.7963 16.4616 55.922 16.0716 56C15.6902 56.0867 15.2266 56.13 14.6806 56.13C13.9699 56.13 13.3416 56 12.7956 55.74C12.2496 55.4713 11.8206 55.0683 11.5086 54.531C11.1966 53.9937 11.0406 53.3177 11.0406 52.503C11.0406 51.671 11.1792 50.982 11.4566 50.436C11.7426 49.8813 12.1369 49.4653 12.6396 49.188C13.1422 48.9107 13.7272 48.772 14.3946 48.772ZM14.4076 50.15C14.0349 50.15 13.7229 50.2713 13.4716 50.514C13.2289 50.7567 13.0859 51.1337 13.0426 51.645H15.7596C15.7596 51.359 15.7076 51.1033 15.6036 50.878C15.5082 50.6527 15.3609 50.475 15.1616 50.345C14.9622 50.215 14.7109 50.15 14.4076 50.15ZM17.0466 46.172C16.9252 46.2933 16.7649 46.4407 16.5656 46.614C16.3662 46.7873 16.1496 46.9693 15.9156 47.16C15.6902 47.3507 15.4649 47.5327 15.2396 47.706C15.0229 47.8707 14.8322 48.0093 14.6676 48.122H13.3806V47.953C13.5192 47.7883 13.6796 47.5977 13.8616 47.381C14.0522 47.1557 14.2386 46.926 14.4206 46.692C14.6026 46.4493 14.7542 46.2327 14.8756 46.042H17.0466V46.172ZM21.3989 56.127C20.6118 56.127 19.9686 55.818 19.4692 55.2002C18.9699 54.5824 18.7202 53.6704 18.7202 52.4644C18.7202 51.2498 18.972 50.3315 19.4756 49.7095C19.9792 49.0832 20.6372 48.77 21.4497 48.77C21.9618 48.77 22.3828 48.8716 22.7129 49.0747C23.043 49.2736 23.3032 49.519 23.4937 49.811H23.5571C23.5317 49.6714 23.5 49.4704 23.4619 49.208C23.4281 48.9414 23.4111 48.6706 23.4111 48.3955V46.123H25.3472V56H23.8682L23.4937 55.0796H23.4111C23.2207 55.3716 22.9647 55.6191 22.6431 55.8223C22.3257 56.0254 21.911 56.127 21.3989 56.127ZM22.0718 54.5845C22.6007 54.5845 22.9731 54.4258 23.189 54.1084C23.409 53.791 23.5275 53.3171 23.5444 52.6865V52.4771C23.5444 51.7915 23.4365 51.2646 23.2207 50.8965C23.0091 50.5283 22.6177 50.3442 22.0464 50.3442C21.6232 50.3442 21.2889 50.5283 21.0435 50.8965C20.8022 51.2646 20.6816 51.7957 20.6816 52.4897C20.6816 53.1838 20.8022 53.7064 21.0435 54.0576C21.2889 54.4089 21.6317 54.5845 22.0718 54.5845ZM28.3496 46.123C28.6331 46.123 28.8786 46.1908 29.0859 46.3262C29.2975 46.4574 29.4033 46.7049 29.4033 47.0688C29.4033 47.4243 29.2975 47.6719 29.0859 47.8115C28.8786 47.9512 28.6331 48.021 28.3496 48.021C28.0534 48.021 27.8037 47.9512 27.6006 47.8115C27.3975 47.6719 27.2959 47.4243 27.2959 47.0688C27.2959 46.7049 27.3975 46.4574 27.6006 46.3262C27.8037 46.1908 28.0534 46.123 28.3496 46.123ZM27.3721 56V48.9033H29.3081V56H27.3721ZM34.3291 54.5845C34.5449 54.5845 34.7523 54.5654 34.9512 54.5273C35.1501 54.485 35.349 54.43 35.5479 54.3623V55.8032C35.3405 55.9006 35.0824 55.9788 34.7734 56.0381C34.4688 56.0973 34.1344 56.127 33.7705 56.127C33.3431 56.127 32.9644 56.0571 32.6343 55.9175C32.3 55.7821 32.0334 55.5451 31.8345 55.2065C31.6398 54.868 31.5425 54.3919 31.5425 53.7783V50.3569H30.6221V49.5381L31.6885 48.8906L32.2471 47.3926H33.4849V48.9033H35.4717V50.3569H33.4849V53.7783C33.4849 54.0449 33.561 54.2459 33.7134 54.3813C33.87 54.5168 34.0752 54.5845 34.3291 54.5845ZM39.896 48.77C40.8778 48.77 41.6543 49.0514 42.2256 49.6143C42.7969 50.1729 43.0825 50.9663 43.0825 51.9946V52.9341H38.5059C38.5228 53.48 38.6857 53.9095 38.9946 54.2227C39.3035 54.5316 39.731 54.686 40.2769 54.686C40.7254 54.686 41.138 54.6416 41.5146 54.5527C41.8913 54.4596 42.2806 54.3179 42.6826 54.1274V55.6255C42.3271 55.799 41.9569 55.9259 41.5718 56.0063C41.1909 56.0868 40.7275 56.127 40.1816 56.127C39.4792 56.127 38.8529 55.9958 38.3027 55.7334C37.7526 55.471 37.321 55.0732 37.0078 54.54C36.6989 54.0068 36.5444 53.3276 36.5444 52.5024C36.5444 51.6772 36.6862 50.9875 36.9697 50.4331C37.249 49.8787 37.6405 49.464 38.144 49.189C38.6476 48.9097 39.2316 48.77 39.896 48.77ZM39.9087 50.1475C39.5278 50.1475 39.2168 50.2702 38.9756 50.5156C38.7344 50.7568 38.5905 51.1335 38.5439 51.6455H41.2607C41.2523 51.2223 41.138 50.8669 40.918 50.5791C40.6979 50.2913 40.3615 50.1475 39.9087 50.1475ZM48.6177 48.77C48.7108 48.77 48.8229 48.7743 48.9541 48.7827C49.0853 48.7912 49.189 48.806 49.2651 48.8271L49.1255 50.6426C49.0535 50.6257 48.9604 50.6108 48.8462 50.5981C48.7362 50.5854 48.6367 50.5791 48.5479 50.5791C48.222 50.5791 47.9067 50.6362 47.6021 50.7505C47.2974 50.869 47.0519 51.0594 46.8657 51.3218C46.6795 51.5799 46.5864 51.9354 46.5864 52.3882V56H44.6504V48.9033H46.1167L46.4023 50.0967H46.4976C46.7049 49.7327 46.9906 49.4217 47.3545 49.1636C47.7184 48.9012 48.1395 48.77 48.6177 48.77Z" fill="#050505"/>
<path d="M48 11.9259L42.0741 6L18.3704 29.7037L16 38L24.2963 35.6296L48 11.9259ZM37.3333 10.7407L43.2593 16.6667L37.3333 10.7407ZM18.3704 29.7037L24.2963 35.6296L18.3704 29.7037Z" stroke="#050505" stroke-width="2" stroke-linecap="round" stroke-linejoin="round"/>
</svg>
