<svg width="71" height="71" viewBox="0 0 71 71" fill="none" xmlns="http://www.w3.org/2000/svg">
<path d="M65.0832 38.4583C65.0832 41.7421 62.4503 44.375 59.1665 44.375H11.8332C10.264 44.375 8.75905 43.7516 7.64946 42.642C6.53987 41.5325 5.9165 40.0275 5.9165 38.4583C5.9165 36.8891 6.53987 35.3842 7.64946 34.2746C8.75905 33.165 10.264 32.5417 11.8332 32.5417H38.4582L45.854 38.4583L53.2498 32.5417H59.1665C60.7357 32.5417 62.2406 33.165 63.3502 34.2746C64.4598 35.3842 65.0832 36.8891 65.0832 38.4583ZM35.4998 8.875C8.87484 8.875 8.87484 26.625 8.87484 26.625H62.1248C62.1248 26.625 62.1248 8.875 35.4998 8.875ZM8.87484 53.25C8.87484 58.1608 12.839 62.125 17.7498 62.125H53.2498C58.1607 62.125 62.1248 58.1608 62.1248 53.25V50.2917H8.87484V53.25Z" fill="#FCFCFC"/>
</svg>
