<svg width="61" height="55" viewBox="0 0 61 55" fill="none" xmlns="http://www.w3.org/2000/svg">
<path d="M60.0832 30.4583C60.0832 33.7421 57.4503 36.375 54.1665 36.375H6.83317C5.26397 36.375 3.75905 35.7516 2.64946 34.642C1.53987 33.5325 0.916504 32.0275 0.916504 30.4583C0.916504 28.8891 1.53987 27.3842 2.64946 26.2746C3.75905 25.165 5.26397 24.5417 6.83317 24.5417H33.4582L40.854 30.4583L48.2498 24.5417H54.1665C55.7357 24.5417 57.2406 25.165 58.3502 26.2746C59.4598 27.3842 60.0832 28.8891 60.0832 30.4583ZM30.4998 0.875C3.87484 0.875 3.87484 18.625 3.87484 18.625H57.1248C57.1248 18.625 57.1248 0.875 30.4998 0.875ZM3.87484 45.25C3.87484 50.1608 7.839 54.125 12.7498 54.125H48.2498C53.1607 54.125 57.1248 50.1608 57.1248 45.25V42.2917H3.87484V45.25Z" fill="#FCFCFC"/>
</svg>
