<svg width="63" height="63" viewBox="0 0 63 63" fill="none" xmlns="http://www.w3.org/2000/svg">
<path d="M55.8829 27.4238C57.4521 27.4238 58.957 28.0471 60.0666 29.1567C61.1762 30.2663 61.7996 31.7712 61.7996 33.3404C61.7996 34.9096 61.1762 36.4145 60.0666 37.5241C58.957 38.6337 57.4521 39.2571 55.8829 39.2571H50.5579L38.7246 27.4238H55.8829ZM57.1254 53.3683V53.3388L48.9604 45.1738H48.9308L43.0142 39.2571H43.0438L31.2104 27.4238L25.2938 21.5071L3.78667 0L0 3.75708L8.90458 12.6321C5.59125 17.0696 5.59125 21.5071 5.59125 21.5071H17.75L23.6667 27.4238H8.54958C5.29542 27.4238 2.63292 30.0863 2.63292 33.3404C2.63292 36.5946 5.29542 39.2571 8.54958 39.2571H35.5L41.4167 45.1738H5.59125V48.1321C5.59125 53.0429 9.55542 57.0071 14.4663 57.0071H49.9663C50.9425 57.0071 51.8892 56.8 52.7471 56.5042L58.3679 62.125L62.125 58.3679L57.1254 53.3683ZM58.8413 21.5071C58.8413 21.5071 58.8413 3.75708 32.2163 3.75708C25.9446 3.75708 21.2113 4.76292 17.5725 6.27167L32.8079 21.5071H58.8413Z" fill="#FCFCFC"/>
</svg>
