<svg width="122" height="120" viewBox="0 0 122 120" fill="none" xmlns="http://www.w3.org/2000/svg">
<g filter="url(#filter0_d_136_22)">
<path fill-rule="evenodd" clip-rule="evenodd" d="M56 5C27.8225 5 5 27.8225 5 56C5 78.5675 19.5988 97.6287 39.8713 104.386C42.4212 104.832 43.3775 103.302 43.3775 101.964C43.3775 100.752 43.3138 96.7362 43.3138 92.465C30.5 94.8237 27.185 89.3412 26.165 86.4725C25.5912 85.0062 23.105 80.48 20.9375 79.2687C19.1525 78.3125 16.6025 75.9537 20.8737 75.89C24.89 75.8262 27.7587 79.5875 28.715 81.1175C33.305 88.8312 40.6362 86.6637 43.5687 85.325C44.015 82.01 45.3538 79.7787 46.82 78.5037C35.4725 77.2287 23.615 72.83 23.615 53.3225C23.615 47.7762 25.5913 43.1862 28.8425 39.6162C28.3325 38.3412 26.5475 33.1137 29.3525 26.1012C29.3525 26.1012 33.6237 24.7625 43.3775 31.3287C47.4575 30.1812 51.7925 29.6075 56.1275 29.6075C60.4625 29.6075 64.7975 30.1812 68.8775 31.3287C78.6312 24.6987 82.9025 26.1012 82.9025 26.1012C85.7075 33.1137 83.9225 38.3412 83.4125 39.6162C86.6637 43.1862 88.64 47.7125 88.64 53.3225C88.64 72.8937 76.7188 77.2287 65.3713 78.5037C67.22 80.0975 68.8138 83.1575 68.8138 87.9387C68.8138 94.76 68.75 100.242 68.75 101.964C68.75 103.302 69.7062 104.896 72.2562 104.386C82.3805 100.968 91.178 94.4611 97.4106 85.7813C103.643 77.1015 106.997 66.6857 107 56C107 27.8225 84.1775 5 56 5Z" fill="#1F1F1F"/>
</g>
<defs>
<filter id="filter0_d_136_22" x="0" y="0" width="122" height="119.483" filterUnits="userSpaceOnUse" color-interpolation-filters="sRGB">
<feFlood flood-opacity="0" result="BackgroundImageFix"/>
<feColorMatrix in="SourceAlpha" type="matrix" values="0 0 0 0 0 0 0 0 0 0 0 0 0 0 0 0 0 0 127 0" result="hardAlpha"/>
<feOffset dx="5" dy="5"/>
<feGaussianBlur stdDeviation="5"/>
<feComposite in2="hardAlpha" operator="out"/>
<feColorMatrix type="matrix" values="0 0 0 0 0 0 0 0 0 0 0 0 0 0 0 0 0 0 0.25 0"/>
<feBlend mode="normal" in2="BackgroundImageFix" result="effect1_dropShadow_136_22"/>
<feBlend mode="normal" in="SourceGraphic" in2="effect1_dropShadow_136_22" result="shape"/>
</filter>
</defs>
</svg>
