<svg width="82" height="82" viewBox="0 0 82 82" fill="none" xmlns="http://www.w3.org/2000/svg">
<path d="M6.20612 40.4401L37.1483 9.51397L39.2223 7.43995C39.6949 6.9705 40.334 6.70703 41.0001 6.70703C41.6662 6.70703 42.3052 6.9705 42.7778 7.43995L75.794 40.4401C76.2782 40.9225 76.6609 41.4969 76.9195 42.1296C77.1781 42.7623 77.3073 43.4403 77.2995 44.1237C77.2674 46.9425 74.9212 49.1927 72.1024 49.1927H68.6991V75.2741H13.301V49.1927H9.82565C8.45631 49.1927 7.16705 48.6562 6.1981 47.6872C5.721 47.2116 5.34298 46.6461 5.08594 46.0235C4.8289 45.4008 4.69794 44.7333 4.70065 44.0597C4.70065 42.6983 5.23717 41.4091 6.20612 40.4401ZM36.5157 69.5085H45.4844V53.1726H36.5157V69.5085ZM19.0667 43.4271V69.5085H31.3907V51.2507C31.3907 49.481 32.8241 48.0476 34.5938 48.0476H47.4063C49.176 48.0476 50.6094 49.481 50.6094 51.2507V69.5085H62.9335V43.4271H70.621L40.9921 13.8222L39.1422 15.672L11.3712 43.4271H19.0667Z" fill="black"/>
</svg>
