<svg width="206" height="206" viewBox="0 0 206 206" fill="none" xmlns="http://www.w3.org/2000/svg">
<path d="M205.269 145.429C205.269 186.491 167.971 205.311 103.297 205.311C38.2814 205.311 1.3252 186.491 1.3252 145.429C1.3252 85.2035 205.269 85.2035 205.269 145.429Z" fill="#E7A74F"/>
<path d="M204.585 117.028C204.585 158.091 167.628 176.911 102.955 176.911C38.6236 176.911 1.3252 158.091 1.3252 117.028C1.66738 57.1455 204.585 57.1455 204.585 117.028Z" fill="#BA8443"/>
<path d="M1.3252 118.053C1.3252 100.944 21.5143 77.333 103.297 77.333C185.08 77.333 205.269 101.286 205.269 118.053C205.269 149.192 176.525 171.777 103.297 171.777C30.069 171.777 1.3252 149.192 1.3252 118.053Z" fill="#826046"/>
<path d="M3.37891 100.262C3.37891 83.1529 23.2258 59.542 103.298 59.542C183.37 59.542 203.216 83.4951 203.216 100.262C203.216 131.401 175.157 153.986 103.298 153.986C31.4383 153.986 3.37891 131.401 3.37891 100.262Z" fill="#68472C"/>
<path d="M4.06297 78.0187C8.8536 67.753 21.5145 67.0687 62.577 84.5202C103.64 101.972 111.51 111.211 106.719 121.819C97.8223 140.639 73.527 154.669 36.5708 138.928C-0.385467 123.187 -5.17609 97.1812 4.06297 78.0187Z" fill="#EF4D3C"/>
<path d="M7.48485 66.3829C12.2755 56.1173 24.9364 55.4329 65.9989 72.8845C107.061 90.336 114.932 99.5751 110.141 110.183C101.244 129.003 76.9489 143.033 39.9927 127.292C3.03641 111.552 -1.75422 85.2032 7.48485 66.3829Z" fill="#D33B23"/>
<path d="M93.3734 111.21C90.6359 100.26 100.217 92.3897 144.359 82.8085C188.502 73.2272 200.478 75.9647 203.216 87.2569C208.348 107.446 198.083 132.426 158.389 140.98C119.037 149.535 98.1641 131.399 93.3734 111.21Z" fill="#EF4D3C"/>
<path d="M88.9262 100.259C86.1887 89.3094 95.7699 81.4391 139.912 71.8578C184.054 62.2766 196.031 65.014 198.768 76.3062C203.901 96.4953 193.636 121.475 153.942 130.03C114.59 138.584 94.059 120.448 88.9262 100.259Z" fill="#D33B23"/>
<path d="M26.3057 98.8931L94.7432 164.593L161.812 98.8931H26.3057Z" fill="#FFE62E"/>
<path d="M200.822 81.7837C200.822 81.7837 203.901 93.4181 200.822 96.8399C198.084 99.9196 189.529 96.4978 185.765 99.2353C182.344 101.631 183.37 110.87 179.264 112.923C175.5 114.976 168.314 109.159 164.208 110.87C160.444 112.238 159.075 121.477 154.969 122.846C150.862 123.873 144.703 117.029 140.597 117.713C136.49 118.398 133.753 127.295 129.304 127.979C125.198 128.663 120.065 120.793 115.617 121.135C111.511 121.477 107.404 129.69 102.956 129.69C98.5076 129.69 94.7436 121.135 90.2951 121.135C85.8467 120.793 81.0561 128.663 76.6076 127.979C72.1592 127.295 69.4217 118.74 65.3154 117.713C60.867 116.687 55.0498 123.873 50.9436 122.846C46.8373 121.477 45.4686 112.581 41.7045 110.87C37.5982 109.159 30.0701 114.976 26.6482 112.923C22.542 110.87 23.5686 101.631 20.1467 99.2353C16.3826 96.4978 7.82793 99.9196 5.09043 96.8399C2.01074 93.4181 5.09043 81.7837 5.09043 81.7837H200.822Z" fill="#8CC63E"/>
<path d="M205.269 73.2281C205.269 95.4703 159.758 106.42 103.297 106.42C46.8361 106.42 1.3252 95.4703 1.3252 73.2281C1.3252 32.85 46.8361 0 103.297 0C159.758 0 205.269 32.85 205.269 73.2281Z" fill="#E7A74F"/>
<path d="M48.8898 42.4314L43.4148 47.5643L38.282 42.4314L43.4148 37.2986L48.8898 42.4314ZM74.2117 34.2189L69.0789 39.3518L63.9461 34.2189L69.0789 29.0861L74.2117 34.2189ZM88.9258 57.4877L83.4508 62.6205L78.318 57.4877L83.4508 52.3549L88.9258 57.4877ZM106.72 39.0096L103.298 42.4314L99.8758 39.0096L103.298 35.5877L106.72 39.0096ZM170.709 52.3549L167.287 55.7768L163.865 52.3549L167.287 48.933L170.709 52.3549ZM191.924 55.7768L188.502 59.1986L185.08 55.7768L188.502 52.3549L191.924 55.7768ZM151.888 30.7971L148.466 34.2189L145.045 30.7971L148.466 27.3752L151.888 30.7971ZM47.5211 26.3486L44.0992 29.7705L40.6773 26.3486L44.0992 22.9268L47.5211 26.3486ZM29.043 42.4314L25.6211 45.8533L22.1992 42.4314L25.6211 39.0096L29.043 42.4314ZM50.6008 65.358L47.1789 68.7799L43.4148 65.358L47.1789 61.9361L50.6008 65.358ZM90.6367 12.6611L87.2148 16.083L83.4508 12.6611L87.2148 9.23926L90.6367 12.6611ZM123.145 9.23926L119.723 12.6611L116.301 9.23926L119.723 5.81738L123.145 9.23926ZM69.0789 16.083L65.657 19.5049L62.2352 16.083L65.657 12.6611L69.0789 16.083ZM167.287 24.2955L163.865 27.7174L160.443 24.2955L163.865 20.8736L167.287 24.2955ZM129.988 67.4111L124.855 72.5439L119.723 67.4111L124.855 62.2783L129.988 67.4111ZM121.776 41.0627L116.643 46.1955L111.51 41.0627L116.643 35.9299L121.776 41.0627ZM140.938 21.2158L135.805 26.3486L130.673 21.2158L135.805 16.083L140.938 21.2158ZM155.995 43.458L150.862 48.5908L145.387 43.458L150.862 38.3252L155.995 43.458ZM177.895 35.9299L172.762 41.0627L167.287 35.9299L172.762 30.7971L177.895 35.9299ZM161.127 66.0424L155.995 71.1752L150.862 66.0424L155.995 60.9096L161.127 66.0424ZM35.8867 57.1455L30.7539 62.2783L25.6211 57.1455L30.7539 52.0127L35.8867 57.1455Z" fill="#FFC17A"/>
</svg>
