<svg width="226" height="221" viewBox="0 0 226 221" fill="none" xmlns="http://www.w3.org/2000/svg">
<path d="M22.8045 56.4349L14.7893 58.2788C14.7893 58.2788 3.66961 75.4381 1.24247 93.6887C-0.281546 105.147 -0.337992 120.105 0.715651 127.556C1.78811 135.007 5.62638 150.868 11.666 162.044C17.4799 172.806 23.1432 177.039 29.3333 180.784C31.9863 182.383 34.357 187.858 38.4963 190.511C42.3722 192.994 47.4899 193.484 47.4899 193.484C47.4899 193.484 61.6388 215.704 92.2509 219.561C128.169 224.077 145.742 207.858 145.742 207.858C145.742 207.858 160.117 207.821 173.682 202.007C188.904 195.478 197.032 181.894 197.032 181.894C197.032 181.894 216.092 165.487 222.131 145.844C226.985 130.077 227.117 100.105 223.392 85.9933C219.666 71.882 212.46 59.9345 206.74 52.2768C202.187 46.1807 151.349 19.1623 145.215 16.7539C139.1 14.3644 82.1472 10.6391 80.0211 12.2383C77.895 13.8564 22.8045 56.4349 22.8045 56.4349Z" fill="#AC5811"/>
<path d="M42.6357 26.3121C29.3711 37.1119 22.5036 42.7564 15.6173 56.2656C8.73102 69.7748 10.9512 87.7056 12.193 94.3285C13.416 100.951 15.6361 113.727 16.8591 120.105C18.0821 126.502 21.3371 141.667 30.3495 151.056C42.9744 164.208 54.414 168.742 54.414 168.742C54.414 168.742 63.6898 183.117 86.0985 191.339C115.563 202.139 128.827 186.428 140.117 182.251C151.406 178.074 164.915 177.83 176.467 169.72C188.001 161.611 200.776 151.79 209.13 131.168C217.484 110.547 215.753 101.459 215.998 96.3041C216.242 91.1488 215.508 66.3505 205.932 51.1291C196.355 35.9078 184.84 26.7637 180.4 23.8661C170.578 17.4878 135.507 2.22883 126.683 0.51666C117.839 -1.19551 86.3055 1.47623 73.7935 6.63155C61.2815 11.7869 42.6357 26.3121 42.6357 26.3121Z" fill="url(#paint0_radial_288_3)"/>
<path d="M98.611 123.604C96.5225 122.946 94.3211 119.841 93.7943 113.199C93.0605 103.735 100.041 101.12 100.041 101.12C100.041 101.12 108.357 98.9188 114.209 96.8303C119.646 94.8923 123.56 92.4088 123.56 92.4088C123.56 92.4088 124.087 82.2674 127.454 79.2758C130.841 76.2843 136.806 76.5477 143.447 77.3191C150.07 78.0905 160.738 82.512 159.177 86.5385C157.615 90.5649 155.79 94.5913 149.43 98.2414C143.071 101.873 138.518 105.259 135.263 108.119C132.008 110.998 126.043 114.611 116.165 118.261C106.288 121.911 101.621 124.545 98.611 123.604ZM42.6738 38.9552C36.4272 37.6758 27.603 51.2038 25.9661 55.6818C24.3103 60.1598 22.617 71.0725 22.4288 76.0585C22.1842 82.2486 22.0713 88.0625 24.6678 92.7851C26.6622 96.4352 31.4977 98.486 35.844 94.723C40.1902 90.96 47.7351 80.6493 49.7295 79.2006C51.7239 77.7518 57.5565 75.8327 55.2611 66.3499C54.3203 62.474 44.7811 54.4588 44.3107 53.3675C43.8592 52.2951 46.2111 39.689 42.6738 38.9552ZM86.8327 21.9652C87.0773 25.5965 90.0501 31.4104 93.2675 34.5525C98.0841 39.2374 120.173 55.0797 125.893 54.1766C131.613 53.2735 137.84 43.0004 139.665 40.1405C141.49 37.2807 145.122 33.2542 146.552 31.4292C147.982 29.6041 151.745 25.446 148.64 21.2879C145.517 17.1297 137.727 14.4016 132.534 14.0064C127.342 13.6113 119.27 10.2434 112.384 10.5068C105.497 10.7703 86.193 12.5953 86.8327 21.9652ZM177.747 70.414C178.18 74.3651 183.73 75.2306 188.152 78.0905C192.573 80.9504 195.565 83.942 198.161 83.1517C200.758 82.3803 204.295 78.2222 203.486 70.9408C202.451 61.5897 196.6 49.6233 188.415 50.0184C183.467 50.263 184.144 58.8615 184.144 58.8615C184.144 58.8615 177.484 68.0809 177.747 70.414Z" fill="#FFC86E"/>
<path d="M70.7446 46.0288C70.7446 46.0288 53.002 45.9159 53.3219 47.6845C53.6605 49.4532 55.2034 55.2858 59.8319 55.5116C64.4604 55.7374 70.4247 56.1701 73.2846 55.2858C76.1445 54.4015 84.0845 48.0044 84.0845 45.1445C84.0845 42.2846 80.8859 38.0889 80.8859 38.0889L70.7446 46.0288ZM96.0885 78.56C96.0885 78.56 95.8815 78.6917 95.5805 78.9363C94.6962 79.6701 93.0028 81.3823 93.6613 83.3014C94.5456 85.8415 99.7198 90.5829 104.8 90.5829C109.88 90.5829 112.627 85.8415 113.511 82.7558C114.396 79.6701 113.944 77.7886 113.944 77.7886L96.0885 78.56ZM56.5204 93.01C56.5204 93.01 53.4348 94.1201 53.5477 96.0957C53.6605 98.0712 54.432 101.721 58.4019 105.578C62.4095 109.473 68.2234 110.546 73.5104 109.116C78.7974 107.686 82.6545 103.716 82.2218 98.4287C81.789 93.1417 76.709 89.0588 76.709 89.0588L56.5204 93.01ZM33.6978 122.23C33.6978 122.23 30.3863 123.001 30.725 125.203C31.0637 127.404 34.8079 134.347 40.7534 133.575C46.699 132.804 56.0877 125.974 56.0877 123.321C56.0877 120.668 51.3463 117.15 51.3463 117.15L33.6978 122.23ZM74.263 149.794C74.263 149.794 73.04 156.906 82.6357 159.502C98.6285 163.811 100.284 154.102 100.284 154.102L74.263 149.794ZM137.086 153.086C137.086 153.086 132.797 157.376 137.67 160.744C142.543 164.112 148.093 165.26 153.324 164.677C158.554 164.093 162.129 159.916 162.129 159.916L137.086 153.086ZM177.125 105.447C177.125 105.447 169.034 109.53 175.3 116.585C180.06 121.966 190.954 120.875 195.413 117.846C198.329 115.87 199.195 112.371 198.104 110.602C196.994 108.833 177.125 105.447 177.125 105.447ZM145.817 58.7102C145.817 58.7102 145.384 67.9484 157.839 67.6473C175.262 67.2146 173.061 56.3959 173.061 56.3959L145.817 58.7102Z" fill="#CF701E"/>
<path d="M153.87 47.1398C153.87 47.1398 145.704 52.2199 144.82 54.3084C143.935 56.3968 142.054 63.0197 151.537 62.587C161.02 62.1542 170.502 61.8156 173.701 57.9585C176.899 54.1014 176.128 50.5642 174.811 47.7043C173.494 44.8444 166.081 34.0257 160.192 34.1574C156.335 34.2327 153.87 47.1398 153.87 47.1398Z" fill="#593329"/>
<path d="M160.155 34.1214C160.155 34.1214 154.981 33.4629 150.446 41.5157C145.931 49.5686 144.764 54.3664 144.764 54.3664C144.764 54.3664 153.965 54.404 159.478 53.7455C164.99 53.087 168.735 49.6626 168.735 49.6626C168.735 49.6626 164.238 35.1186 160.155 34.1214Z" fill="#925849"/>
<path d="M97.5376 71.7326C97.5376 71.7326 93.022 71.4316 92.6833 73.1814C92.3446 74.95 93.3418 79.4468 94.8846 81.4224C96.4275 83.398 101.056 87.8195 105.684 86.9352C110.313 86.0509 113.06 81.5164 113.831 79.9548C114.528 78.4872 115.28 76.9068 113.963 74.9312C112.627 72.9368 97.5376 71.7326 97.5376 71.7326Z" fill="#593329"/>
<path d="M104.255 64.676C100.417 64.262 91.1601 71.6187 92.8159 74.1399C94.6597 76.9057 94.9796 75.1559 100.06 77.696C104.255 79.7845 106.08 81.7224 108.715 81.3837C111.349 81.0451 114.491 76.6988 113.945 74.9302C113.4 73.1616 109.448 65.2216 104.255 64.676Z" fill="#925849"/>
<path d="M60.8103 34.892L51.7791 41.1386C51.7791 41.1386 51.4404 45.372 53.3219 47.6863C55.2034 50.0005 55.7491 51.4305 64.5733 51.4305C73.3976 51.4305 81.6574 50.2263 83.2002 43.9421C84.7431 37.6579 82.0337 33.6314 80.378 31.3172C78.7222 29.0029 60.8103 34.892 60.8103 34.892Z" fill="#593329"/>
<path d="M60.9241 25.0888C58.892 25.9542 54.0942 32.4831 52.9841 35.343C51.874 38.2028 51.6294 41.2509 51.78 41.2885C53.605 41.7401 64.3484 42.7373 69.0898 41.9658C73.8312 41.1944 77.6883 39.106 79.2311 36.3401C80.4541 34.1388 80.36 31.2225 80.36 31.2225C80.36 31.2225 77.1426 25.4274 72.7211 23.6588C68.3184 21.8902 61.6955 24.7501 60.9241 25.0888Z" fill="#925949"/>
<path d="M53.3605 93.4262C53.3605 93.4262 52.6079 94.5739 54.0379 96.7753C55.4678 98.9767 58.2712 101.611 62.467 102.834C66.6628 104.038 69.6355 105.694 72.3825 105.374C75.1483 105.035 80.5483 102.834 80.7552 95.2325C80.981 87.6312 79.4382 84.094 76.1267 80.7825C72.8153 77.4711 70.4258 78.0355 70.4258 78.0355L53.3605 93.4262Z" fill="#593329"/>
<path d="M54.3198 86.3871C53.1533 88.3439 52.2878 94.7034 53.7177 96.1333C55.1476 97.5633 63.7461 97.6573 66.0039 97.4127C68.2806 97.1681 75.7125 93.6685 75.8254 91.0156C75.9383 88.3627 74.5083 84.8443 74.5083 83.5272C74.5083 82.2102 76.1641 79.1245 71.6484 78.0144C67.1328 76.9043 56.7281 82.3043 54.3198 86.3871Z" fill="#925849"/>
<path d="M39.4178 114.95C39.4178 114.95 32.3245 116.7 31.873 119.127C31.4402 121.555 32.4562 124.001 34.8834 126.315C37.3105 128.629 39.0791 131.056 40.9418 130.83C42.8233 130.605 47.7717 126.202 49.3145 124.772C50.8573 123.342 53.0587 120.802 52.8517 118.713C52.6448 116.625 51.7416 114.518 49.7661 112.862C47.8093 111.206 39.4178 114.95 39.4178 114.95Z" fill="#593329"/>
<path d="M41.1869 108.664C37.8754 108.74 35.3354 112.747 34.2441 114.177C33.134 115.607 31.2714 119.031 32.0428 119.577C32.8142 120.123 36.0128 120.461 37.5556 121.459C39.0984 122.456 41.4127 123.999 43.1813 122.569C44.9499 121.139 46.4927 117.169 47.377 115.852C48.2613 114.535 49.8042 112.879 49.8042 112.879C49.8042 112.879 46.4739 108.551 41.1869 108.664Z" fill="#925849"/>
<path d="M81.6578 135.233C80.9993 136.004 71.6294 143.606 71.6294 143.606C71.6294 143.606 71.9681 150.229 74.0565 151.771C76.145 153.314 82.655 155.516 86.8508 156.4C91.0465 157.284 98.5349 158.281 100.416 157.51C102.298 156.739 104.274 152.656 104.386 147.369C104.499 142.082 102.618 138.13 100.529 135.703C98.4408 133.276 96.7663 132.373 96.7663 132.373L81.6578 135.233Z" fill="#593329"/>
<path d="M94.1143 145.148C95.3372 143.774 96.7672 132.353 96.7672 132.353C96.7672 132.353 88.2816 125.843 84.7444 125.411C81.2071 124.978 77.0302 125.298 75.8072 126.615C74.6031 127.932 69.8617 132.673 70.2944 135.759C70.7272 138.845 71.6115 143.586 71.6115 143.586C71.6115 143.586 91.5742 148.026 94.1143 145.148Z" fill="#925849"/>
<path d="M135.242 150.586C135.242 150.586 134.17 157.735 142.034 159.09C149.899 160.426 156.428 162.213 159.833 161.498C163.239 160.783 166.626 156.23 166.983 152.919C167.341 149.607 167.529 144.828 166.983 143.53C165.553 140.087 158.93 130.661 155.713 129.663C153.907 129.118 152.194 129.419 152.194 129.419L135.242 150.586Z" fill="#593329"/>
<path d="M140.343 138.055C136.824 141.95 135.018 147.576 135.206 150.549C135.394 153.352 148.734 152.129 150.315 151.169C151.895 150.21 155.338 145.92 155.451 144.49C155.564 143.06 154.473 138.582 154.285 135.816C154.097 133.051 154.021 129.288 152.497 129.382C150.973 129.476 145.348 132.524 140.343 138.055Z" fill="#925849"/>
<path d="M185.461 89.5127C185.461 89.5127 188.566 89.9643 192.385 92.2597C196.844 94.9314 201.51 101.742 201.153 107.293C200.795 112.843 195.96 115.346 190.071 115.44C184.182 115.534 178.424 115.214 177.352 112.166C176.279 109.118 185.461 89.5127 185.461 89.5127Z" fill="#593329"/>
<path d="M180.756 91.3729C179.835 92.6523 177.445 96.5658 176.636 101.571C175.827 106.575 176.373 112.295 178.16 113.292C179.947 114.271 189.788 105.785 190.314 104.882C190.86 103.979 187.172 90.3004 186.006 89.6795C184.839 89.0586 181.923 89.7736 180.756 91.3729Z" fill="#925849"/>
<defs>
<radialGradient id="paint0_radial_288_3" cx="0" cy="0" r="1" gradientUnits="userSpaceOnUse" gradientTransform="translate(113.444 97.5195) scale(100.1)">
<stop offset="0.507" stop-color="#F29F58"/>
<stop offset="0.715" stop-color="#F09D56"/>
<stop offset="0.826" stop-color="#EB9550"/>
<stop offset="0.914" stop-color="#E18745"/>
<stop offset="0.99" stop-color="#D47436"/>
<stop offset="1" stop-color="#D27133"/>
</radialGradient>
</defs>
</svg>
