<svg width="23" height="18" viewBox="0 0 23 18" fill="none" xmlns="http://www.w3.org/2000/svg">
<path d="M3.83333 0C2.81667 0 1.84165 0.379284 1.12276 1.05442C0.403868 1.72955 0 2.64522 0 3.6V3.9618L11.5 9.7776L23 3.9636V3.6C23 2.64522 22.5961 1.72955 21.8772 1.05442C21.1584 0.379284 20.1833 0 19.1667 0H3.83333ZM23 6.0066L11.9543 11.592C11.8146 11.6626 11.6586 11.6995 11.5 11.6995C11.3414 11.6995 11.1854 11.6626 11.0457 11.592L0 6.0066V14.4C0 15.3548 0.403868 16.2705 1.12276 16.9456C1.84165 17.6207 2.81667 18 3.83333 18H19.1667C20.1833 18 21.1584 17.6207 21.8772 16.9456C22.5961 16.2705 23 15.3548 23 14.4V6.0066Z" fill="#050505"/>
</svg>
