<svg width="122" height="118" viewBox="0 0 122 118" fill="none" xmlns="http://www.w3.org/2000/svg">
<g filter="url(#filter0_d_136_24)">
<path d="M55.9863 37.6597C46.6216 37.6597 38.9794 45.0024 38.9794 54C38.9794 62.9976 46.6216 70.3403 55.9863 70.3403C65.3509 70.3403 72.9932 62.9976 72.9932 54C72.9932 45.0024 65.3509 37.6597 55.9863 37.6597ZM106.994 54C106.994 47.2334 107.058 40.5281 106.663 33.7738C106.267 25.9285 104.404 18.9658 98.4334 13.229C92.4498 7.47982 85.2158 5.70237 77.0504 5.32236C70.0078 4.94235 63.0289 5.00365 55.999 5.00365C48.9564 5.00365 41.9776 4.94235 34.9477 5.32236C26.7824 5.70237 19.5356 7.49208 13.5647 13.229C7.58099 18.9781 5.73102 25.9285 5.33551 33.7738C4.94 40.5404 5.00379 47.2457 5.00379 54C5.00379 60.7543 4.94 67.4719 5.33551 74.2262C5.73102 82.0715 7.59375 89.0342 13.5647 94.771C19.5484 100.52 26.7824 102.298 34.9477 102.678C41.9903 103.058 48.9692 102.996 55.999 102.996C63.0417 102.996 70.0205 103.058 77.0504 102.678C85.2158 102.298 92.4625 100.508 98.4334 94.771C104.417 89.0219 106.267 82.0715 106.663 74.2262C107.071 67.4719 106.994 60.7666 106.994 54ZM55.9863 79.1417C41.5055 79.1417 29.8188 67.9132 29.8188 54C29.8188 40.0868 41.5055 28.8583 55.9863 28.8583C70.4671 28.8583 82.1537 40.0868 82.1537 54C82.1537 67.9132 70.4671 79.1417 55.9863 79.1417ZM83.2254 33.7003C79.8445 33.7003 77.1142 31.077 77.1142 27.8286C77.1142 24.5801 79.8445 21.9569 83.2254 21.9569C86.6064 21.9569 89.3367 24.5801 89.3367 27.8286C89.3377 28.5999 89.1803 29.3639 88.8736 30.0767C88.5668 30.7895 88.1167 31.4372 87.549 31.9827C86.9813 32.5281 86.3072 32.9606 85.5653 33.2553C84.8234 33.55 84.0283 33.7013 83.2254 33.7003Z" fill="#1F1F1F"/>
</g>
<defs>
<filter id="filter0_d_136_24" x="0" y="0" width="122" height="118" filterUnits="userSpaceOnUse" color-interpolation-filters="sRGB">
<feFlood flood-opacity="0" result="BackgroundImageFix"/>
<feColorMatrix in="SourceAlpha" type="matrix" values="0 0 0 0 0 0 0 0 0 0 0 0 0 0 0 0 0 0 127 0" result="hardAlpha"/>
<feOffset dx="5" dy="5"/>
<feGaussianBlur stdDeviation="5"/>
<feComposite in2="hardAlpha" operator="out"/>
<feColorMatrix type="matrix" values="0 0 0 0 0 0 0 0 0 0 0 0 0 0 0 0 0 0 0.25 0"/>
<feBlend mode="normal" in2="BackgroundImageFix" result="effect1_dropShadow_136_24"/>
<feBlend mode="normal" in="SourceGraphic" in2="effect1_dropShadow_136_24" result="shape"/>
</filter>
</defs>
</svg>
