<svg width="114" height="115" viewBox="0 0 114 115" fill="none" xmlns="http://www.w3.org/2000/svg">
<g filter="url(#filter0_d_136_20)">
<path fill-rule="evenodd" clip-rule="evenodd" d="M5.25 13.1801C5.25 11.088 6.073 9.08167 7.53794 7.60237C9.00288 6.12307 10.9898 5.292 13.0615 5.292H90.93C91.9567 5.29031 92.9736 5.49312 93.9226 5.88883C94.8716 6.28454 95.7339 6.86537 96.4603 7.59807C97.1867 8.33077 97.7628 9.20095 98.1557 10.1588C98.5486 11.1166 98.7506 12.1433 98.75 13.1801V91.812C98.7511 92.849 98.5498 93.876 98.1574 94.8343C97.7651 95.7926 97.1895 96.6634 96.4636 97.3968C95.7376 98.1302 94.8756 98.7119 93.9268 99.1086C92.9781 99.5053 91.9611 99.7092 90.9342 99.7087H13.0615C12.0353 99.7087 11.0192 99.5045 10.0712 99.1078C9.12318 98.7111 8.26185 98.1297 7.53643 97.3968C6.81101 96.6639 6.23571 95.7938 5.8434 94.8363C5.45108 93.8787 5.24944 92.8525 5.25 91.8163V13.1801ZM42.259 41.2905H54.9198V47.7108C56.7472 44.02 61.4222 40.6983 68.4475 40.6983C81.9157 40.6983 85.1075 48.0499 85.1075 61.5386V86.5247H71.4778V64.6114C71.4778 56.9293 69.6503 52.5948 65.0093 52.5948C58.5705 52.5948 55.893 57.2684 55.893 64.6114V86.5247H42.259V41.2905ZM18.884 85.9367H32.518V40.6983H18.884V85.9324V85.9367ZM34.4688 25.9435C34.4945 27.1223 34.2867 28.2944 33.8578 29.3911C33.4288 30.4877 32.7872 31.4868 31.9707 32.3296C31.1542 33.1725 30.1792 33.8422 29.1029 34.2994C28.0266 34.7566 26.8708 34.9921 25.7031 34.9921C24.5355 34.9921 23.3796 34.7566 22.3033 34.2994C21.227 33.8422 20.252 33.1725 19.4355 32.3296C18.619 31.4868 17.9774 30.4877 17.5485 29.3911C17.1195 28.2944 16.9118 27.1223 16.9375 25.9435C16.988 23.6297 17.9336 21.4278 19.572 19.8094C21.2104 18.191 23.4112 17.2847 25.7031 17.2847C27.9951 17.2847 30.1959 18.191 31.8342 19.8094C33.4726 21.4278 34.4183 23.6297 34.4688 25.9435Z" fill="#1F1F1F"/>
</g>
<defs>
<filter id="filter0_d_136_20" x="0.25" y="0.291992" width="113.5" height="114.417" filterUnits="userSpaceOnUse" color-interpolation-filters="sRGB">
<feFlood flood-opacity="0" result="BackgroundImageFix"/>
<feColorMatrix in="SourceAlpha" type="matrix" values="0 0 0 0 0 0 0 0 0 0 0 0 0 0 0 0 0 0 127 0" result="hardAlpha"/>
<feOffset dx="5" dy="5"/>
<feGaussianBlur stdDeviation="5"/>
<feComposite in2="hardAlpha" operator="out"/>
<feColorMatrix type="matrix" values="0 0 0 0 0 0 0 0 0 0 0 0 0 0 0 0 0 0 0.25 0"/>
<feBlend mode="normal" in2="BackgroundImageFix" result="effect1_dropShadow_136_20"/>
<feBlend mode="normal" in="SourceGraphic" in2="effect1_dropShadow_136_20" result="shape"/>
</filter>
</defs>
</svg>
