<svg width="308" height="236" viewBox="0 0 308 236" fill="none" xmlns="http://www.w3.org/2000/svg">
<path d="M109.59 46.9058L94.4384 160.834H25.1675L7.89795 47.2266" fill="white"/>
<path d="M80.0123 50.0005L65.2715 160.834H94.4381L109.179 50.0005H80.0123Z" fill="#D0CFCE"/>
<path d="M94.4375 160.833H25.1667L3 15H113.833L94.4375 160.833Z" stroke="black" stroke-width="5.83333" stroke-miterlimit="10" stroke-linecap="round" stroke-linejoin="round"/>
<path d="M8.8335 47.0835H110.917" stroke="black" stroke-width="5.83333" stroke-miterlimit="10"/>
<path d="M203.568 68.3455L200.395 61.4553L192.633 31.2787L190.659 26.5803L193.505 19.5811C193.505 19.5811 197.537 20.1502 200.613 23.6256C204.355 27.8639 210.458 40.5424 210.458 40.5424L209.174 30.5401L216.137 12.485C216.137 12.485 219.189 12.158 220 12.9936C221.441 14.4709 223.899 24.8365 224.771 28.1182C225.643 31.3998 226.854 35.8803 228.38 37.842C229.906 39.8037 231.771 40.2518 231.771 40.2518L237.232 19.1572L238.54 0.0244351C238.54 0.0244351 240.453 0.0123258 243.129 0.569357C245.151 0.993185 246.508 1.68342 247.162 2.49475C247.815 3.30608 247.84 16.2026 247.84 16.2026C247.84 16.2026 259.38 6.36975 259.755 6.47873C260.554 6.6967 263.037 7.24162 264.345 8.67053C265.653 10.0873 264.563 15.3428 263.582 18.8424C262.601 22.342 259.21 33.7127 259.21 33.7127L262.274 32.5502L262.952 33.2041L268.656 24.449C268.656 24.449 270.714 24.4369 272.385 25.2604C274.202 26.1565 275.292 28.3604 275.292 28.3604L289.944 7.15686C289.944 7.15686 291.058 8.14983 292.039 9.13068C293.02 10.1115 293.71 10.8018 293.758 11.7947C293.807 12.7756 290.271 19.3026 288.636 22.5842C287.001 25.8658 284.265 32.4291 284.265 32.4291L296.18 23.335C296.18 23.335 300.128 23.892 300.249 25.1998C300.358 26.5076 298.263 28.9295 296.18 32.5381C294.097 36.1467 290.61 43.1459 289.399 45.5436C288.188 47.9412 289.835 48.0623 289.835 48.0623L304.112 39.0408C304.112 39.0408 307.188 39.6705 307.478 41.0994C307.805 42.7342 304.269 45.9916 301.969 48.6073C299.668 51.235 294.751 57.5682 292.245 62.4967C289.738 67.4252 288.055 70.501 288.055 70.501L266.319 92.0678L208.484 88.5682L203.568 68.3455Z" fill="url(#paint0_radial_256_2)"/>
<path d="M275.873 44.5383C274.42 44.8773 269.83 52.8211 265.543 64.9062C262.964 72.1719 261.257 80.1156 261.354 83.918C261.45 87.7203 267.19 86.5578 267.19 86.5578L269.624 78.6625C269.624 78.6625 272.349 69.3988 275.57 62.4844C279.336 54.3711 284.216 49.2125 283.853 47.9652C283.368 46.2941 277.919 44.0539 275.873 44.5383ZM290.295 23.8797C288.261 25.0664 283.671 32.7438 282.303 35.6742C280.934 38.6047 280.886 44.1144 282.388 44.8289C284.24 45.7008 286.299 39.4766 289.423 34.3059C292.547 29.1352 296.241 23.2863 296.241 23.2863C296.241 23.2863 292.632 22.5113 290.295 23.8797ZM297.996 39.0891C294.884 40.409 289.084 46.5969 287.074 49.709C283.368 55.4609 280.644 61.891 279.663 64.5187C278.694 67.1465 277.907 70.7551 280.934 69.0961C283.962 67.4371 287.849 59.6387 292.826 52.6273C298.59 44.4898 304.136 38.9801 304.136 38.9801C304.136 38.9801 300.527 38.0113 297.996 39.0891ZM284.93 4.38359C283.732 4.23828 280.45 12.957 278.597 17.1469C276.745 21.3367 274.274 26.8828 274.274 26.8828C274.274 26.8828 272.845 37.9145 274.892 38.1082C276.938 38.302 280.946 24.8484 283.938 18.6848C286.856 12.6785 289.932 7.12031 289.932 7.12031C289.932 7.12031 287.268 4.67422 284.93 4.38359ZM263.376 26.2289C262.298 27.3672 262.904 33.2281 262.904 33.2281C262.904 33.2281 267.093 36.3523 267.88 35.6621C268.668 34.9719 268.704 24.3883 268.704 24.3883C268.704 24.3883 265.132 24.3762 263.376 26.2289ZM254.718 34.209C253.204 35.4805 254.233 41.4383 253.846 46.7785C253.264 54.7707 250.927 71.1426 250.237 75.9258C249.547 80.709 248.869 85.9645 248.869 85.9645L256.377 84.7898C256.377 84.7898 259.295 62.4723 260.47 53.8867C261.644 45.3012 263.388 33.1312 262.225 32.441C261.051 31.775 256.57 32.6469 254.718 34.209ZM253.809 5.73984C251.896 6.10312 247.852 16.2023 247.852 16.2023C247.852 16.2023 247.609 23.4922 247.609 27.0039C247.609 30.5156 246.931 34.7055 248.094 34.7055C249.256 34.7055 251.509 27.9848 253.846 22.1359C256.183 16.2871 259.767 6.47852 259.767 6.47852C259.767 6.47852 256.522 5.23125 253.809 5.73984ZM231.807 2.04648C230.487 3.43906 232.582 7.02344 232.775 16.8563C232.969 26.7012 231.758 40.2395 231.758 40.2395C231.758 40.2395 232.8 40.1668 233.454 42.1891C234.011 43.8965 234.919 54.2742 236.081 53.8867C237.256 53.4992 238.709 46.5727 239.884 34.875C241.058 23.1773 240.562 14.1195 240.174 10.4141C239.787 6.70859 238.527 0 238.527 0C238.527 0 233.756 0 231.807 2.04648ZM216.137 12.4848C216.137 12.4848 210.506 12.8844 208.956 15.9117C207.394 18.9391 207.891 20.4043 208.181 23.3227C208.472 26.241 209.392 32.0656 209.392 32.0656C209.392 32.0656 214.563 38.4957 217.384 36.9336C220.206 35.3836 216.137 12.4848 216.137 12.4848ZM193.505 19.5809C193.505 19.5809 190.38 18.9996 188.528 19.3871C186.675 19.7746 186.772 21.5305 187.656 22.7051C188.528 23.8797 192.56 31.1695 192.56 31.1695C192.56 31.1695 193.759 31.1938 195.321 31.775C196.883 32.3563 199.559 33.8094 199.45 31.4723C199.257 27.3914 193.505 19.5809 193.505 19.5809ZM202.308 65.6086C202.308 65.6086 196.423 53.7051 192.039 47.166C187.656 40.6269 183.066 35.5652 183.066 34.4996C183.066 33.4219 186.094 32.3563 187.837 31.8719C189.581 31.3875 192.621 31.2785 192.621 31.2785C192.621 31.2785 199.826 43.4605 202.756 50.0965C205.687 56.7324 208.411 64.4582 207.733 65.4027C207.116 66.2504 202.744 65.6813 202.308 65.6086ZM206.268 44.3445C205.808 46.052 208.024 53.8019 209.392 59.3602C210.761 64.9184 212.42 70.7672 212.42 70.7672L217.094 80.3215L222.264 78.4688C222.264 78.4688 219.54 73.2012 217.978 67.752C216.416 62.2785 214.393 45.3012 212.311 43.0852C210.857 41.523 206.571 43.2789 206.268 44.3445ZM222.458 42.3949C221.235 43.1941 223.136 56.1391 224.117 61.5035C225.098 66.868 227.145 72.5231 228.21 75.1508C229.288 77.7785 232.4 84.4145 232.4 84.4145C232.4 84.4145 235.621 88.2168 235.718 87.8293C235.815 87.4418 237.183 82.6586 237.183 82.6586C237.183 82.6586 232.884 69.9801 232.194 64.5187C231.516 59.0574 230.438 42.4918 229.373 41.9105C228.307 41.3293 224.408 41.1355 222.458 42.3949ZM244.195 42.6855C242.729 44.0418 241.276 61.9879 240.683 68.6117C240.089 75.2355 239.605 84.9836 239.605 84.9836L246.132 84.4992C246.132 84.4992 248.566 60.4258 248.954 57.3016C249.341 54.1773 251.097 47.0691 250.225 44.2355C249.353 41.4262 245.454 41.523 244.195 42.6855Z" fill="#FBDE93"/>
<path d="M200.371 67.8251C199.959 68.7575 212.686 138.398 212.892 139.44C213.098 140.481 212.686 141.426 214.66 142.358C216.646 143.291 219.746 143.787 221.732 144.005C223.718 144.211 237.389 144.235 237.498 142.576C237.607 140.905 278.477 81.3755 278.477 81.3755C278.477 81.3755 286.009 68.7454 285.488 67.704C284.967 66.6626 282.933 67.1469 280.717 68.6606C278.501 70.1864 276.454 73.9524 270.23 78.1301C263.485 82.659 254.548 83.6157 245.563 83.5067C237.28 83.3977 227.436 81.8961 220.388 76.677C214.188 72.0754 212.359 68.7575 206.838 67.2922C201.97 65.9965 200.371 67.8251 200.371 67.8251Z" fill="#FD703F"/>
<path d="M209.998 72.3782L221.55 144.029C221.55 144.029 235.319 146.015 246.048 146.221C256.789 146.427 269.588 144.187 269.588 144.187L278.888 112.751L286.784 71.2762C286.784 71.2762 284.834 69.3266 282.642 70.9372C280.959 72.1723 275.764 80.2129 266.585 83.761C256.232 87.7571 237.571 88.0477 225.922 83.1313C215.241 78.6387 211.984 72.7899 209.998 72.3782Z" fill="#FF2A23"/>
<path d="M276.285 141.983C273.935 143.387 268.462 144.332 268.462 144.332C268.462 144.332 273.887 117.958 276.902 104.189C279.917 90.4209 284.265 67.1346 284.265 67.1346C284.265 67.1346 286.008 66.8561 287.801 67.0741C289.835 67.3284 291.046 67.9217 291.458 68.5635C292.124 69.6049 288.115 89.0526 284.192 108.04C280.608 125.478 277.532 141.244 276.285 141.983Z" fill="#DC0D25"/>
<path d="M80.563 174.941C80.563 174.941 79.2055 183.821 82.3589 191.655C84.989 198.216 91.8048 206.856 104.842 213.446C117.88 220.035 132.855 222.355 154.957 222.807C177.059 223.274 199.769 218.112 210.671 208.539C221.587 198.952 225.405 190.892 225.094 182.139C224.783 173.386 220.131 170.062 220.131 170.062L80.563 174.941Z" fill="#FCB745"/>
<path d="M86.8842 166.018L80.4361 172.466C80.4361 172.466 78.6826 181.091 88.4114 190.424C95.7787 197.48 108.816 209.74 152.115 210.066C192.642 210.377 205.383 201.468 213.202 195.176C221.036 188.883 223.978 177.952 223.2 174.884C222.436 171.815 220.032 170.048 220.032 170.048L86.8842 166.018Z" fill="#E78B20"/>
<path d="M89.6416 175.223C89.6416 175.223 87.8175 178.32 88.4114 180.285C88.878 181.827 89.7972 188.119 108.053 196.095C117.711 200.323 134.142 203.773 155.48 203.151C180.792 202.416 201.07 197.325 210.883 188.105C220.937 178.673 219.014 173.06 219.014 173.06L89.6416 175.223Z" fill="#FFD290"/>
<path d="M84.4238 153.729C84.4238 153.729 78.3716 159.895 77.3677 162.638C76.4202 165.226 76.5475 168.987 78.2161 172.027C80.4645 176.1 83.2643 176.524 86.7288 178.603C90.476 180.837 96.4009 187.808 110.98 190.877C125.559 193.945 144.748 195.331 155.028 195.331C165.308 195.331 178.968 195.176 191.709 190.877C204.449 186.578 219.028 178.136 222.408 170.613C225.788 163.091 222.564 158.636 222.564 158.636L215.196 153.729H84.4238Z" fill="#6D544D"/>
<path d="M80.888 145.911C80.888 145.911 76.1933 145.699 75.0621 152.811C74.2419 157.987 77.9751 161.253 77.9751 161.253C77.9751 161.253 75.9954 164.096 78.2861 167.702C80.4355 171.081 82.7404 171.845 87.4917 172.608C90.9137 173.16 92.7096 172.142 97.1639 174.602C102.749 177.685 105.139 183.2 112.818 184.882C120.496 186.565 129.093 185.038 129.39 183.808C129.687 182.577 118.643 177.982 98.6911 166.768C91.9601 162.993 85.7948 157.86 84.1121 155.258C82.4293 152.656 80.888 145.911 80.888 145.911ZM177.44 183.355C177.44 185.349 184.044 184.43 187.112 182.747C190.181 181.064 195.088 176.766 199.542 174.913C203.996 173.075 205.679 174.758 212.127 171.689C218.575 168.621 222.11 161.409 222.11 161.409C222.11 161.409 225.25 157.534 225.504 154.819C225.9 150.676 225.49 148.668 222.577 147.749C219.664 146.83 213.315 156.375 212.396 157.45C211.477 158.524 197.873 168.465 192.5 172.297C187.127 176.129 177.44 182.281 177.44 183.355Z" fill="#9B7169"/>
<path d="M86.8842 140.692C86.8842 140.692 79.2058 141.611 78.1311 144.835C77.0564 148.059 80.436 152.811 89.3305 158.806C96.6271 163.713 121.628 175.52 131.54 181.672C142.895 188.728 152.511 198.584 154.109 198.711C156.103 198.867 169.946 184.16 189.107 171.236C207.32 158.933 219.806 155.893 224.26 146.829C226.65 141.965 220.881 139.151 220.881 139.151L146.897 111.067L86.8842 140.692Z" fill="#FFE869"/>
<path d="M155.027 190.424C157.318 190.17 169.295 178.603 183.422 169.708C197.548 160.814 218.42 151.283 221.488 145.924C224.557 140.565 217.189 137.015 217.189 137.015L131.229 122.592L80.888 142.389C80.888 142.389 78.1305 143.308 79.9688 145.613C81.8071 147.918 84.7201 151.75 91.1682 155.737C99.0021 160.588 119.11 168.634 131.837 175.534C144.591 182.435 152.27 190.721 155.027 190.424Z" fill="#FFBE01"/>
<path d="M87.8174 144.679L90.49 151.835C90.49 151.835 109.721 171.221 147.972 171.985C186.038 172.749 207.376 154.634 207.376 154.634L212.241 142.417L87.8174 144.679Z" fill="#F4482B"/>
<path d="M137.96 156.501L134.948 161.323C134.948 161.323 141.382 165.183 143.234 165.848C145.893 166.795 148.509 166.456 152.426 165.24C156.343 164.038 172.604 157.562 172.604 157.562C172.604 157.562 186.052 157.76 194.494 157.915C201.975 158.056 209.469 155.37 213.386 150.845C217.303 146.32 223.383 136.619 223.383 136.619C223.383 136.619 226.551 135.87 228.658 133.452C230.765 131.034 230.92 128.927 230.92 128.927C230.92 128.927 230.312 124.854 228.064 123.808C225.802 122.747 125.035 116.582 125.035 116.582L84.6639 119.594L77.8623 133.607L100.303 152.74L131.936 154.55L137.96 156.501Z" fill="#A6B732"/>
<path d="M79.9692 121.263C77.6925 120.231 75.3028 120.358 74.2422 123.37C73.1817 126.382 73.5069 127.711 73.5069 127.711C73.5069 127.711 70.4101 128.362 70.0283 132.251C69.5758 136.917 74.6947 138.571 74.6947 138.571C74.6947 138.571 74.9351 140.381 76.9572 142.191C79.2622 144.256 81.5671 144.044 81.5671 144.044C81.5671 144.044 87.6475 150.025 91.72 152.429C95.7925 154.833 101.661 156.502 107.543 156.346C113.426 156.191 115.377 153.49 119.747 154.989C124.116 156.488 135.697 162.582 140.364 162.681C147.745 162.837 163.71 151.383 167.33 151.538C170.95 151.694 187.367 154.253 196.106 154.253C204.845 154.253 208.013 151.694 209.964 149.134C211.915 146.575 215.238 140.099 214.178 139.943C213.117 139.788 206.188 145.514 201.225 145.062C196.248 144.609 191.892 141.753 185.713 141.753C179.533 141.753 149.414 145.67 147.448 146.575C145.483 147.48 137.055 153.956 135.4 153.659C133.746 153.362 128.019 148.541 126.068 147.48C124.116 146.419 103.57 145.741 100.614 146.278C98.4934 146.66 95.4956 147.183 95.4956 147.183C95.4956 147.183 95.7925 142.517 93.2331 139.802C90.6736 137.087 82.2317 132.42 82.2317 132.42C82.2317 132.42 83.2781 122.762 79.9692 121.263ZM213.57 129.394C213.57 129.394 222.761 129.394 225.321 129.239C227.88 129.083 230.892 128.942 230.892 128.942C230.892 128.942 230.015 124.77 228.686 122.55C225.971 117.997 219.438 116.738 219.438 116.738L213.57 129.394Z" fill="#C2DD1F"/>
<path d="M77.8624 115.692L76.8584 120.132C76.8584 120.132 90.7586 144.751 153.232 145.684C189.8 146.236 210.813 135.135 220.089 126.057C225.646 120.613 225.83 115.324 225.83 115.324L77.8624 115.692Z" fill="#DE8010"/>
<path d="M74.6952 103.446C73.9033 115.748 76.9011 120.16 76.9011 120.16C76.9011 120.16 97.5747 138.882 150.376 139.745C204.492 140.622 222.083 122.677 225.166 117.445C227.131 114.122 228.701 107.603 227.456 98.1009C225.392 82.4048 207.32 52.6246 150.121 52.8509C92.9225 53.0771 75.8547 85.5864 74.6952 103.446Z" fill="url(#paint1_radial_256_2)"/>
<path d="M129.038 68.1646C129.476 70.5685 118.63 78.5721 117.06 70.8938C115.59 63.6679 128.627 65.9446 129.038 68.1646ZM132.912 83.2244C133.478 84.7092 144.592 86.8444 143.404 80.5801C142.16 74.0613 131.753 80.17 132.912 83.2244ZM142.655 66.0294C142.938 68.1646 155.891 70.6534 155.622 64.6295C155.297 57.1915 142.33 63.5548 142.655 66.0294ZM121.288 88.1736C121.359 88.6544 118.178 91.1573 114.925 92.133C112.069 92.9956 109.142 92.6279 108.816 89.0786C108.505 85.6566 110.938 84.4122 113.851 84.7092C117.202 85.0344 121.147 87.2545 121.288 88.1736ZM148.198 98.171C147.661 95.9227 135.486 92.7976 136.306 99.9103C137.14 106.995 148.778 100.561 148.198 98.171ZM159.595 81.98C159.002 81.2871 156.216 81.4144 152.822 82.3053C150.376 82.9557 148.566 85.7132 150.263 88.3292C152.242 91.3835 155.565 90.0968 157.686 87.509C159.412 85.4162 160.26 82.7578 159.595 81.98ZM172.633 65.4496C172.251 65.0396 169.466 64.7567 167.189 65.8597C164.898 66.9627 162.918 69.5928 165.04 72.0533C167.189 74.5279 170.385 73.0997 171.898 70.4837C173.1 68.3767 173.213 66.0718 172.633 65.4496ZM181.372 86.9717C181.004 84.6667 170.767 80.566 170.837 86.8444C170.908 93.2784 181.697 89.0503 181.372 86.9717ZM195.527 75.6026C195.187 73.835 182.164 72.4068 184.384 78.9822C186.689 85.8404 195.937 77.752 195.527 75.6026ZM177.596 98.7367C177.681 96.757 167.769 92.2178 167.033 98.1569C166.298 104.096 177.483 101.31 177.596 98.7367Z" fill="#FDEAC8"/>
<path d="M210.137 179.768L207.408 180.396C207.408 180.396 203.622 186.238 202.796 192.452C202.277 196.354 202.257 201.447 202.616 203.983C202.981 206.52 204.288 211.921 206.345 215.726C208.324 219.391 210.252 220.832 212.36 222.107C213.263 222.651 214.071 224.516 215.48 225.419C216.8 226.264 218.542 226.431 218.542 226.431C218.542 226.431 223.36 233.997 233.783 235.31C246.012 236.848 251.996 231.325 251.996 231.325C251.996 231.325 256.89 231.313 261.509 229.333C266.692 227.11 269.459 222.485 269.459 222.485C269.459 222.485 275.949 216.898 278.005 210.21C279.658 204.842 279.703 194.637 278.434 189.832C277.166 185.027 274.712 180.959 272.765 178.352C271.214 176.276 253.905 167.077 251.816 166.257C249.734 165.443 230.342 164.175 229.619 164.72C228.895 165.271 210.137 179.768 210.137 179.768Z" fill="#AC5811"/>
<path d="M216.89 169.512C212.373 173.189 210.035 175.111 207.69 179.71C205.345 184.31 206.101 190.415 206.524 192.67C206.941 194.925 207.697 199.275 208.113 201.447C208.529 203.625 209.638 208.788 212.706 211.985C217.005 216.463 220.9 218.007 220.9 218.007C220.9 218.007 224.058 222.901 231.688 225.701C241.72 229.378 246.237 224.029 250.08 222.607C253.924 221.184 258.524 221.101 262.457 218.34C266.384 215.579 270.734 212.235 273.578 205.214C276.423 198.192 275.833 195.098 275.917 193.343C276 191.588 275.75 183.144 272.489 177.961C269.229 172.779 265.308 169.665 263.796 168.679C260.452 166.507 248.511 161.312 245.506 160.729C242.495 160.146 231.758 161.055 227.498 162.811C223.238 164.566 216.89 169.512 216.89 169.512Z" fill="url(#paint2_radial_256_2)"/>
<path d="M235.948 202.638C235.237 202.414 234.487 201.357 234.308 199.095C234.058 195.873 236.435 194.982 236.435 194.982C236.435 194.982 239.267 194.233 241.259 193.522C243.11 192.862 244.443 192.016 244.443 192.016C244.443 192.016 244.622 188.563 245.769 187.545C246.922 186.526 248.953 186.616 251.214 186.879C253.469 187.141 257.102 188.647 256.57 190.018C256.038 191.389 255.417 192.76 253.251 194.002C251.086 195.239 249.536 196.392 248.427 197.366C247.319 198.346 245.288 199.576 241.925 200.819C238.562 202.061 236.973 202.958 235.948 202.638ZM216.902 173.816C214.775 173.381 211.771 177.987 211.214 179.511C210.65 181.036 210.073 184.752 210.009 186.449C209.926 188.557 209.887 190.537 210.772 192.145C211.451 193.387 213.097 194.086 214.577 192.804C216.057 191.523 218.626 188.012 219.305 187.519C219.984 187.026 221.97 186.372 221.188 183.144C220.868 181.824 217.62 179.095 217.46 178.723C217.306 178.358 218.107 174.066 216.902 173.816ZM231.938 168.031C232.021 169.268 233.033 171.247 234.129 172.317C235.769 173.912 243.29 179.306 245.237 178.999C247.185 178.691 249.305 175.194 249.927 174.22C250.548 173.246 251.784 171.875 252.271 171.254C252.758 170.632 254.039 169.217 252.982 167.801C251.919 166.385 249.267 165.456 247.499 165.322C245.73 165.187 242.982 164.04 240.637 164.13C238.293 164.22 231.72 164.841 231.938 168.031ZM262.893 184.527C263.04 185.873 264.93 186.167 266.435 187.141C267.941 188.115 268.96 189.134 269.844 188.865C270.728 188.602 271.932 187.186 271.657 184.707C271.304 181.523 269.312 177.449 266.525 177.583C264.84 177.666 265.071 180.594 265.071 180.594C265.071 180.594 262.803 183.733 262.893 184.527Z" fill="#FFC86E"/>
<path d="M226.46 176.225C226.46 176.225 220.419 176.186 220.528 176.789C220.643 177.391 221.168 179.377 222.744 179.454C224.32 179.531 226.351 179.678 227.325 179.377C228.299 179.076 231.002 176.898 231.002 175.924C231.002 174.95 229.913 173.521 229.913 173.521L226.46 176.225ZM235.089 187.301C235.089 187.301 235.019 187.346 234.916 187.429C234.615 187.679 234.039 188.262 234.263 188.916C234.564 189.781 236.326 191.395 238.055 191.395C239.785 191.395 240.72 189.781 241.021 188.73C241.323 187.679 241.169 187.039 241.169 187.039L235.089 187.301ZM221.617 192.221C221.617 192.221 220.566 192.599 220.605 193.272C220.643 193.945 220.906 195.187 222.258 196.501C223.622 197.827 225.602 198.192 227.402 197.705C229.202 197.218 230.515 195.866 230.368 194.066C230.221 192.266 228.491 190.876 228.491 190.876L221.617 192.221ZM213.846 202.17C213.846 202.17 212.719 202.433 212.834 203.182C212.949 203.932 214.224 206.296 216.248 206.033C218.273 205.771 221.47 203.445 221.47 202.542C221.47 201.639 219.855 200.441 219.855 200.441L213.846 202.17ZM227.658 211.555C227.658 211.555 227.242 213.977 230.509 214.861C235.954 216.328 236.518 213.022 236.518 213.022L227.658 211.555ZM249.048 212.676C249.048 212.676 247.588 214.137 249.247 215.284C250.906 216.431 252.796 216.821 254.577 216.623C256.358 216.424 257.575 215.002 257.575 215.002L249.048 212.676ZM262.681 196.456C262.681 196.456 259.926 197.846 262.06 200.248C263.68 202.081 267.39 201.709 268.908 200.678C269.901 200.005 270.196 198.813 269.824 198.211C269.446 197.609 262.681 196.456 262.681 196.456ZM252.021 180.543C252.021 180.543 251.874 183.688 256.115 183.586C262.047 183.438 261.297 179.755 261.297 179.755L252.021 180.543Z" fill="#CF701E"/>
<path d="M254.763 176.603C254.763 176.603 251.983 178.333 251.682 179.044C251.381 179.755 250.74 182.01 253.969 181.863C257.198 181.716 260.426 181.6 261.515 180.287C262.604 178.974 262.342 177.769 261.893 176.796C261.445 175.822 258.921 172.138 256.916 172.183C255.602 172.209 254.763 176.603 254.763 176.603Z" fill="#593329"/>
<path d="M256.903 172.17C256.903 172.17 255.141 171.946 253.597 174.688C252.06 177.43 251.663 179.064 251.663 179.064C251.663 179.064 254.795 179.076 256.672 178.852C258.549 178.628 259.824 177.462 259.824 177.462C259.824 177.462 258.293 172.51 256.903 172.17Z" fill="#925849"/>
<path d="M235.583 184.976C235.583 184.976 234.045 184.874 233.93 185.47C233.814 186.072 234.154 187.603 234.679 188.276C235.205 188.948 236.781 190.454 238.356 190.153C239.932 189.852 240.868 188.308 241.13 187.776C241.367 187.276 241.624 186.738 241.175 186.066C240.72 185.386 235.583 184.976 235.583 184.976Z" fill="#593329"/>
<path d="M237.87 182.574C236.563 182.433 233.411 184.938 233.975 185.796C234.603 186.738 234.712 186.142 236.441 187.007C237.87 187.718 238.491 188.378 239.388 188.263C240.285 188.148 241.355 186.668 241.169 186.065C240.983 185.463 239.638 182.76 237.87 182.574Z" fill="#925849"/>
<path d="M223.078 172.433L220.003 174.56C220.003 174.56 219.887 176.001 220.528 176.789C221.169 177.577 221.354 178.064 224.359 178.064C227.363 178.064 230.176 177.654 230.701 175.514C231.226 173.375 230.304 172.004 229.74 171.216C229.176 170.428 223.078 172.433 223.078 172.433Z" fill="#593329"/>
<path d="M223.116 169.095C222.425 169.39 220.791 171.613 220.413 172.586C220.035 173.56 219.952 174.598 220.003 174.611C220.624 174.765 224.282 175.104 225.897 174.841C227.511 174.579 228.824 173.868 229.35 172.926C229.766 172.176 229.734 171.183 229.734 171.183C229.734 171.183 228.639 169.21 227.133 168.608C225.634 168.006 223.379 168.98 223.116 169.095Z" fill="#925949"/>
<path d="M220.541 192.363C220.541 192.363 220.285 192.754 220.772 193.503C221.259 194.253 222.213 195.15 223.642 195.566C225.07 195.976 226.082 196.54 227.018 196.431C227.959 196.316 229.798 195.566 229.869 192.978C229.945 190.39 229.42 189.186 228.293 188.058C227.165 186.931 226.351 187.123 226.351 187.123L220.541 192.363Z" fill="#593329"/>
<path d="M220.868 189.966C220.47 190.633 220.176 192.798 220.663 193.285C221.149 193.772 224.077 193.804 224.846 193.72C225.621 193.637 228.151 192.446 228.19 191.542C228.228 190.639 227.741 189.441 227.741 188.993C227.741 188.544 228.305 187.494 226.768 187.116C225.23 186.738 221.688 188.576 220.868 189.966Z" fill="#925849"/>
<path d="M215.794 199.692C215.794 199.692 213.379 200.288 213.225 201.114C213.078 201.94 213.424 202.773 214.25 203.561C215.076 204.349 215.679 205.176 216.313 205.099C216.953 205.022 218.638 203.523 219.164 203.036C219.689 202.549 220.438 201.684 220.368 200.973C220.297 200.262 219.99 199.545 219.317 198.981C218.651 198.417 215.794 199.692 215.794 199.692Z" fill="#593329"/>
<path d="M216.396 197.552C215.269 197.577 214.404 198.942 214.032 199.429C213.654 199.915 213.02 201.081 213.283 201.267C213.545 201.453 214.634 201.568 215.16 201.908C215.685 202.247 216.473 202.773 217.075 202.286C217.677 201.799 218.203 200.447 218.504 199.999C218.805 199.55 219.33 198.987 219.33 198.987C219.33 198.987 218.196 197.513 216.396 197.552Z" fill="#925849"/>
<path d="M230.176 206.598C229.952 206.86 226.761 209.449 226.761 209.449C226.761 209.449 226.877 211.704 227.588 212.229C228.299 212.754 230.515 213.504 231.944 213.805C233.372 214.106 235.922 214.445 236.563 214.183C237.203 213.92 237.876 212.53 237.915 210.73C237.953 208.93 237.312 207.584 236.601 206.758C235.89 205.932 235.32 205.624 235.32 205.624L230.176 206.598Z" fill="#593329"/>
<path d="M234.417 209.973C234.834 209.506 235.32 205.617 235.32 205.617C235.32 205.617 232.431 203.4 231.227 203.253C230.022 203.106 228.6 203.215 228.184 203.663C227.774 204.112 226.159 205.726 226.307 206.777C226.454 207.827 226.755 209.442 226.755 209.442C226.755 209.442 233.552 210.953 234.417 209.973Z" fill="#925849"/>
<path d="M248.421 211.825C248.421 211.825 248.055 214.259 250.733 214.721C253.411 215.176 255.634 215.784 256.794 215.541C257.953 215.297 259.106 213.747 259.228 212.619C259.35 211.492 259.414 209.865 259.228 209.423C258.741 208.25 256.486 205.041 255.391 204.701C254.776 204.516 254.193 204.618 254.193 204.618L248.421 211.825Z" fill="#593329"/>
<path d="M250.157 207.558C248.959 208.884 248.344 210.8 248.408 211.812C248.472 212.767 253.014 212.35 253.553 212.024C254.091 211.697 255.263 210.236 255.301 209.749C255.34 209.262 254.968 207.738 254.904 206.796C254.84 205.854 254.815 204.573 254.296 204.605C253.777 204.637 251.861 205.675 250.157 207.558Z" fill="#925849"/>
<path d="M265.519 191.03C265.519 191.03 266.576 191.184 267.877 191.966C269.395 192.875 270.984 195.194 270.862 197.084C270.74 198.974 269.094 199.826 267.089 199.858C265.084 199.89 263.123 199.781 262.758 198.743C262.393 197.706 265.519 191.03 265.519 191.03Z" fill="#593329"/>
<path d="M263.918 191.664C263.604 192.1 262.79 193.432 262.515 195.136C262.239 196.84 262.425 198.788 263.033 199.127C263.642 199.46 266.993 196.571 267.172 196.264C267.358 195.956 266.102 191.299 265.705 191.087C265.308 190.876 264.315 191.119 263.918 191.664Z" fill="#925849"/>
<path d="M109.59 46.9058L94.4384 160.834H25.1675L7.89795 47.2266" fill="white"/>
<path d="M80.0123 50.0005L65.2715 160.834H94.4381L109.179 50.0005H80.0123Z" fill="#D0CFCE"/>
<path d="M94.4375 160.833H25.1667L3 15H113.833L94.4375 160.833Z" stroke="black" stroke-width="5.83333" stroke-miterlimit="10" stroke-linecap="round" stroke-linejoin="round"/>
<path d="M8.8335 47.0835H110.917" stroke="black" stroke-width="5.83333" stroke-miterlimit="10"/>
<path d="M203.568 68.3455L200.395 61.4553L192.633 31.2787L190.659 26.5803L193.505 19.5811C193.505 19.5811 197.537 20.1502 200.613 23.6256C204.355 27.8639 210.458 40.5424 210.458 40.5424L209.174 30.5401L216.137 12.485C216.137 12.485 219.189 12.158 220 12.9936C221.441 14.4709 223.899 24.8365 224.771 28.1182C225.643 31.3998 226.854 35.8803 228.38 37.842C229.906 39.8037 231.771 40.2518 231.771 40.2518L237.232 19.1572L238.54 0.0244351C238.54 0.0244351 240.453 0.0123258 243.129 0.569357C245.151 0.993185 246.508 1.68342 247.162 2.49475C247.815 3.30608 247.84 16.2026 247.84 16.2026C247.84 16.2026 259.38 6.36975 259.755 6.47873C260.554 6.6967 263.037 7.24162 264.345 8.67053C265.653 10.0873 264.563 15.3428 263.582 18.8424C262.601 22.342 259.21 33.7127 259.21 33.7127L262.274 32.5502L262.952 33.2041L268.656 24.449C268.656 24.449 270.714 24.4369 272.385 25.2604C274.202 26.1565 275.292 28.3604 275.292 28.3604L289.944 7.15686C289.944 7.15686 291.058 8.14983 292.039 9.13068C293.02 10.1115 293.71 10.8018 293.758 11.7947C293.807 12.7756 290.271 19.3026 288.636 22.5842C287.001 25.8658 284.265 32.4291 284.265 32.4291L296.18 23.335C296.18 23.335 300.128 23.892 300.249 25.1998C300.358 26.5076 298.263 28.9295 296.18 32.5381C294.097 36.1467 290.61 43.1459 289.399 45.5436C288.188 47.9412 289.835 48.0623 289.835 48.0623L304.112 39.0408C304.112 39.0408 307.188 39.6705 307.478 41.0994C307.805 42.7342 304.269 45.9916 301.969 48.6073C299.668 51.235 294.751 57.5682 292.245 62.4967C289.738 67.4252 288.055 70.501 288.055 70.501L266.319 92.0678L208.484 88.5682L203.568 68.3455Z" fill="url(#paint3_radial_256_2)"/>
<path d="M275.873 44.5383C274.42 44.8773 269.83 52.8211 265.543 64.9062C262.964 72.1719 261.257 80.1156 261.354 83.918C261.45 87.7203 267.19 86.5578 267.19 86.5578L269.624 78.6625C269.624 78.6625 272.349 69.3988 275.57 62.4844C279.336 54.3711 284.216 49.2125 283.853 47.9652C283.368 46.2941 277.919 44.0539 275.873 44.5383ZM290.295 23.8797C288.261 25.0664 283.671 32.7438 282.303 35.6742C280.934 38.6047 280.886 44.1144 282.388 44.8289C284.24 45.7008 286.299 39.4766 289.423 34.3059C292.547 29.1352 296.241 23.2863 296.241 23.2863C296.241 23.2863 292.632 22.5113 290.295 23.8797ZM297.996 39.0891C294.884 40.409 289.084 46.5969 287.074 49.709C283.368 55.4609 280.644 61.891 279.663 64.5187C278.694 67.1465 277.907 70.7551 280.934 69.0961C283.962 67.4371 287.849 59.6387 292.826 52.6273C298.59 44.4898 304.136 38.9801 304.136 38.9801C304.136 38.9801 300.527 38.0113 297.996 39.0891ZM284.93 4.38359C283.732 4.23828 280.45 12.957 278.597 17.1469C276.745 21.3367 274.274 26.8828 274.274 26.8828C274.274 26.8828 272.845 37.9145 274.892 38.1082C276.938 38.302 280.946 24.8484 283.938 18.6848C286.856 12.6785 289.932 7.12031 289.932 7.12031C289.932 7.12031 287.268 4.67422 284.93 4.38359ZM263.376 26.2289C262.298 27.3672 262.904 33.2281 262.904 33.2281C262.904 33.2281 267.093 36.3523 267.88 35.6621C268.668 34.9719 268.704 24.3883 268.704 24.3883C268.704 24.3883 265.132 24.3762 263.376 26.2289ZM254.718 34.209C253.204 35.4805 254.233 41.4383 253.846 46.7785C253.264 54.7707 250.927 71.1426 250.237 75.9258C249.547 80.709 248.869 85.9645 248.869 85.9645L256.377 84.7898C256.377 84.7898 259.295 62.4723 260.47 53.8867C261.644 45.3012 263.388 33.1312 262.225 32.441C261.051 31.775 256.57 32.6469 254.718 34.209ZM253.809 5.73984C251.896 6.10312 247.852 16.2023 247.852 16.2023C247.852 16.2023 247.609 23.4922 247.609 27.0039C247.609 30.5156 246.931 34.7055 248.094 34.7055C249.256 34.7055 251.509 27.9848 253.846 22.1359C256.183 16.2871 259.767 6.47852 259.767 6.47852C259.767 6.47852 256.522 5.23125 253.809 5.73984ZM231.807 2.04648C230.487 3.43906 232.582 7.02344 232.775 16.8563C232.969 26.7012 231.758 40.2395 231.758 40.2395C231.758 40.2395 232.8 40.1668 233.454 42.1891C234.011 43.8965 234.919 54.2742 236.081 53.8867C237.256 53.4992 238.709 46.5727 239.884 34.875C241.058 23.1773 240.562 14.1195 240.174 10.4141C239.787 6.70859 238.527 0 238.527 0C238.527 0 233.756 0 231.807 2.04648ZM216.137 12.4848C216.137 12.4848 210.506 12.8844 208.956 15.9117C207.394 18.9391 207.891 20.4043 208.181 23.3227C208.472 26.241 209.392 32.0656 209.392 32.0656C209.392 32.0656 214.563 38.4957 217.384 36.9336C220.206 35.3836 216.137 12.4848 216.137 12.4848ZM193.505 19.5809C193.505 19.5809 190.38 18.9996 188.528 19.3871C186.675 19.7746 186.772 21.5305 187.656 22.7051C188.528 23.8797 192.56 31.1695 192.56 31.1695C192.56 31.1695 193.759 31.1938 195.321 31.775C196.883 32.3563 199.559 33.8094 199.45 31.4723C199.257 27.3914 193.505 19.5809 193.505 19.5809ZM202.308 65.6086C202.308 65.6086 196.423 53.7051 192.039 47.166C187.656 40.6269 183.066 35.5652 183.066 34.4996C183.066 33.4219 186.094 32.3563 187.837 31.8719C189.581 31.3875 192.621 31.2785 192.621 31.2785C192.621 31.2785 199.826 43.4605 202.756 50.0965C205.687 56.7324 208.411 64.4582 207.733 65.4027C207.116 66.2504 202.744 65.6813 202.308 65.6086ZM206.268 44.3445C205.808 46.052 208.024 53.8019 209.392 59.3602C210.761 64.9184 212.42 70.7672 212.42 70.7672L217.094 80.3215L222.264 78.4688C222.264 78.4688 219.54 73.2012 217.978 67.752C216.416 62.2785 214.393 45.3012 212.311 43.0852C210.857 41.523 206.571 43.2789 206.268 44.3445ZM222.458 42.3949C221.235 43.1941 223.136 56.1391 224.117 61.5035C225.098 66.868 227.145 72.5231 228.21 75.1508C229.288 77.7785 232.4 84.4145 232.4 84.4145C232.4 84.4145 235.621 88.2168 235.718 87.8293C235.815 87.4418 237.183 82.6586 237.183 82.6586C237.183 82.6586 232.884 69.9801 232.194 64.5187C231.516 59.0574 230.438 42.4918 229.373 41.9105C228.307 41.3293 224.408 41.1355 222.458 42.3949ZM244.195 42.6855C242.729 44.0418 241.276 61.9879 240.683 68.6117C240.089 75.2355 239.605 84.9836 239.605 84.9836L246.132 84.4992C246.132 84.4992 248.566 60.4258 248.954 57.3016C249.341 54.1773 251.097 47.0691 250.225 44.2355C249.353 41.4262 245.454 41.523 244.195 42.6855Z" fill="#FBDE93"/>
<path d="M200.371 67.8251C199.959 68.7575 212.686 138.398 212.892 139.44C213.098 140.481 212.686 141.426 214.66 142.358C216.646 143.291 219.746 143.787 221.732 144.005C223.718 144.211 237.389 144.235 237.498 142.576C237.607 140.905 278.477 81.3755 278.477 81.3755C278.477 81.3755 286.009 68.7454 285.488 67.704C284.967 66.6626 282.933 67.1469 280.717 68.6606C278.501 70.1864 276.454 73.9524 270.23 78.1301C263.485 82.659 254.548 83.6157 245.563 83.5067C237.28 83.3977 227.436 81.8961 220.388 76.677C214.188 72.0754 212.359 68.7575 206.838 67.2922C201.97 65.9965 200.371 67.8251 200.371 67.8251Z" fill="#FD703F"/>
<path d="M209.998 72.3782L221.55 144.029C221.55 144.029 235.319 146.015 246.048 146.221C256.789 146.427 269.588 144.187 269.588 144.187L278.888 112.751L286.784 71.2762C286.784 71.2762 284.834 69.3266 282.642 70.9372C280.959 72.1723 275.764 80.2129 266.585 83.761C256.232 87.7571 237.571 88.0477 225.922 83.1313C215.241 78.6387 211.984 72.7899 209.998 72.3782Z" fill="#FF2A23"/>
<path d="M276.285 141.983C273.935 143.387 268.462 144.332 268.462 144.332C268.462 144.332 273.887 117.958 276.902 104.189C279.917 90.4209 284.265 67.1346 284.265 67.1346C284.265 67.1346 286.008 66.8561 287.801 67.0741C289.835 67.3284 291.046 67.9217 291.458 68.5635C292.124 69.6049 288.115 89.0526 284.192 108.04C280.608 125.478 277.532 141.244 276.285 141.983Z" fill="#DC0D25"/>
<path d="M80.563 174.941C80.563 174.941 79.2055 183.821 82.3589 191.655C84.989 198.216 91.8048 206.856 104.842 213.446C117.88 220.035 132.855 222.355 154.957 222.807C177.059 223.274 199.769 218.112 210.671 208.539C221.587 198.952 225.405 190.892 225.094 182.139C224.783 173.386 220.131 170.062 220.131 170.062L80.563 174.941Z" fill="#FCB745"/>
<path d="M86.8842 166.018L80.4361 172.466C80.4361 172.466 78.6826 181.091 88.4114 190.424C95.7787 197.48 108.816 209.74 152.115 210.066C192.642 210.377 205.383 201.468 213.202 195.176C221.036 188.883 223.978 177.952 223.2 174.884C222.436 171.815 220.032 170.048 220.032 170.048L86.8842 166.018Z" fill="#E78B20"/>
<path d="M89.6416 175.223C89.6416 175.223 87.8175 178.32 88.4114 180.285C88.878 181.827 89.7972 188.119 108.053 196.095C117.711 200.323 134.142 203.773 155.48 203.151C180.792 202.416 201.07 197.325 210.883 188.105C220.937 178.673 219.014 173.06 219.014 173.06L89.6416 175.223Z" fill="#FFD290"/>
<path d="M84.4238 153.729C84.4238 153.729 78.3716 159.895 77.3677 162.638C76.4202 165.226 76.5475 168.987 78.2161 172.027C80.4645 176.1 83.2643 176.524 86.7288 178.603C90.476 180.837 96.4009 187.808 110.98 190.877C125.559 193.945 144.748 195.331 155.028 195.331C165.308 195.331 178.968 195.176 191.709 190.877C204.449 186.578 219.028 178.136 222.408 170.613C225.788 163.091 222.564 158.636 222.564 158.636L215.196 153.729H84.4238Z" fill="#6D544D"/>
<path d="M80.888 145.911C80.888 145.911 76.1933 145.699 75.0621 152.811C74.2419 157.987 77.9751 161.253 77.9751 161.253C77.9751 161.253 75.9954 164.096 78.2861 167.702C80.4355 171.081 82.7404 171.845 87.4917 172.608C90.9137 173.16 92.7096 172.142 97.1639 174.602C102.749 177.685 105.139 183.2 112.818 184.882C120.496 186.565 129.093 185.038 129.39 183.808C129.687 182.577 118.643 177.982 98.6911 166.768C91.9601 162.993 85.7948 157.86 84.1121 155.258C82.4293 152.656 80.888 145.911 80.888 145.911ZM177.44 183.355C177.44 185.349 184.044 184.43 187.112 182.747C190.181 181.064 195.088 176.766 199.542 174.913C203.996 173.075 205.679 174.758 212.127 171.689C218.575 168.621 222.11 161.409 222.11 161.409C222.11 161.409 225.25 157.534 225.504 154.819C225.9 150.676 225.49 148.668 222.577 147.749C219.664 146.83 213.315 156.375 212.396 157.45C211.477 158.524 197.873 168.465 192.5 172.297C187.127 176.129 177.44 182.281 177.44 183.355Z" fill="#9B7169"/>
<path d="M86.8842 140.692C86.8842 140.692 79.2058 141.611 78.1311 144.835C77.0564 148.059 80.436 152.811 89.3305 158.806C96.6271 163.713 121.628 175.52 131.54 181.672C142.895 188.728 152.511 198.584 154.109 198.711C156.103 198.867 169.946 184.16 189.107 171.236C207.32 158.933 219.806 155.893 224.26 146.829C226.65 141.965 220.881 139.151 220.881 139.151L146.897 111.067L86.8842 140.692Z" fill="#FFE869"/>
<path d="M155.027 190.424C157.318 190.17 169.295 178.603 183.422 169.708C197.548 160.814 218.42 151.283 221.488 145.924C224.557 140.565 217.189 137.015 217.189 137.015L131.229 122.592L80.888 142.389C80.888 142.389 78.1305 143.308 79.9688 145.613C81.8071 147.918 84.7201 151.75 91.1682 155.737C99.0021 160.588 119.11 168.634 131.837 175.534C144.591 182.435 152.27 190.721 155.027 190.424Z" fill="#FFBE01"/>
<path d="M87.8174 144.679L90.49 151.835C90.49 151.835 109.721 171.221 147.972 171.985C186.038 172.749 207.376 154.634 207.376 154.634L212.241 142.417L87.8174 144.679Z" fill="#F4482B"/>
<path d="M137.96 156.501L134.948 161.323C134.948 161.323 141.382 165.183 143.234 165.848C145.893 166.795 148.509 166.456 152.426 165.24C156.343 164.038 172.604 157.562 172.604 157.562C172.604 157.562 186.052 157.76 194.494 157.915C201.975 158.056 209.469 155.37 213.386 150.845C217.303 146.32 223.383 136.619 223.383 136.619C223.383 136.619 226.551 135.87 228.658 133.452C230.765 131.034 230.92 128.927 230.92 128.927C230.92 128.927 230.312 124.854 228.064 123.808C225.802 122.747 125.035 116.582 125.035 116.582L84.6639 119.594L77.8623 133.607L100.303 152.74L131.936 154.55L137.96 156.501Z" fill="#A6B732"/>
<path d="M79.9692 121.263C77.6925 120.231 75.3028 120.358 74.2422 123.37C73.1817 126.382 73.5069 127.711 73.5069 127.711C73.5069 127.711 70.4101 128.362 70.0283 132.251C69.5758 136.917 74.6947 138.571 74.6947 138.571C74.6947 138.571 74.9351 140.381 76.9572 142.191C79.2622 144.256 81.5671 144.044 81.5671 144.044C81.5671 144.044 87.6475 150.025 91.72 152.429C95.7925 154.833 101.661 156.502 107.543 156.346C113.426 156.191 115.377 153.49 119.747 154.989C124.116 156.488 135.697 162.582 140.364 162.681C147.745 162.837 163.71 151.383 167.33 151.538C170.95 151.694 187.367 154.253 196.106 154.253C204.845 154.253 208.013 151.694 209.964 149.134C211.915 146.575 215.238 140.099 214.178 139.943C213.117 139.788 206.188 145.514 201.225 145.062C196.248 144.609 191.892 141.753 185.713 141.753C179.533 141.753 149.414 145.67 147.448 146.575C145.483 147.48 137.055 153.956 135.4 153.659C133.746 153.362 128.019 148.541 126.068 147.48C124.116 146.419 103.57 145.741 100.614 146.278C98.4934 146.66 95.4956 147.183 95.4956 147.183C95.4956 147.183 95.7925 142.517 93.2331 139.802C90.6736 137.087 82.2317 132.42 82.2317 132.42C82.2317 132.42 83.2781 122.762 79.9692 121.263ZM213.57 129.394C213.57 129.394 222.761 129.394 225.321 129.239C227.88 129.083 230.892 128.942 230.892 128.942C230.892 128.942 230.015 124.77 228.686 122.55C225.971 117.997 219.438 116.738 219.438 116.738L213.57 129.394Z" fill="#C2DD1F"/>
<path d="M77.8624 115.692L76.8584 120.132C76.8584 120.132 90.7586 144.751 153.232 145.684C189.8 146.236 210.813 135.135 220.089 126.057C225.646 120.613 225.83 115.324 225.83 115.324L77.8624 115.692Z" fill="#DE8010"/>
<path d="M74.6952 103.446C73.9033 115.748 76.9011 120.16 76.9011 120.16C76.9011 120.16 97.5747 138.882 150.376 139.745C204.492 140.622 222.083 122.677 225.166 117.445C227.131 114.122 228.701 107.603 227.456 98.1009C225.392 82.4048 207.32 52.6246 150.121 52.8509C92.9225 53.0771 75.8547 85.5864 74.6952 103.446Z" fill="url(#paint4_radial_256_2)"/>
<path d="M129.038 68.1646C129.476 70.5685 118.63 78.5721 117.06 70.8938C115.59 63.6679 128.627 65.9446 129.038 68.1646ZM132.912 83.2244C133.478 84.7092 144.592 86.8444 143.404 80.5801C142.16 74.0613 131.753 80.17 132.912 83.2244ZM142.655 66.0294C142.938 68.1646 155.891 70.6534 155.622 64.6295C155.297 57.1915 142.33 63.5548 142.655 66.0294ZM121.288 88.1736C121.359 88.6544 118.178 91.1573 114.925 92.133C112.069 92.9956 109.142 92.6279 108.816 89.0786C108.505 85.6566 110.938 84.4122 113.851 84.7092C117.202 85.0344 121.147 87.2545 121.288 88.1736ZM148.198 98.171C147.661 95.9227 135.486 92.7976 136.306 99.9103C137.14 106.995 148.778 100.561 148.198 98.171ZM159.595 81.98C159.002 81.2871 156.216 81.4144 152.822 82.3053C150.376 82.9557 148.566 85.7132 150.263 88.3292C152.242 91.3835 155.565 90.0968 157.686 87.509C159.412 85.4162 160.26 82.7578 159.595 81.98ZM172.633 65.4496C172.251 65.0396 169.466 64.7567 167.189 65.8597C164.898 66.9627 162.918 69.5928 165.04 72.0533C167.189 74.5279 170.385 73.0997 171.898 70.4837C173.1 68.3767 173.213 66.0718 172.633 65.4496ZM181.372 86.9717C181.004 84.6667 170.767 80.566 170.837 86.8444C170.908 93.2784 181.697 89.0503 181.372 86.9717ZM195.527 75.6026C195.187 73.835 182.164 72.4068 184.384 78.9822C186.689 85.8404 195.937 77.752 195.527 75.6026ZM177.596 98.7367C177.681 96.757 167.769 92.2178 167.033 98.1569C166.298 104.096 177.483 101.31 177.596 98.7367Z" fill="#FDEAC8"/>
<path d="M210.137 179.768L207.408 180.396C207.408 180.396 203.622 186.238 202.796 192.452C202.277 196.354 202.257 201.447 202.616 203.983C202.981 206.52 204.288 211.921 206.345 215.726C208.324 219.391 210.252 220.832 212.36 222.107C213.263 222.651 214.071 224.516 215.48 225.419C216.8 226.264 218.542 226.431 218.542 226.431C218.542 226.431 223.36 233.997 233.783 235.31C246.012 236.848 251.996 231.325 251.996 231.325C251.996 231.325 256.89 231.313 261.509 229.333C266.692 227.11 269.459 222.485 269.459 222.485C269.459 222.485 275.949 216.898 278.005 210.21C279.658 204.842 279.703 194.637 278.434 189.832C277.166 185.027 274.712 180.959 272.765 178.352C271.214 176.276 253.905 167.077 251.816 166.257C249.734 165.443 230.342 164.175 229.619 164.72C228.895 165.271 210.137 179.768 210.137 179.768Z" fill="#AC5811"/>
<path d="M216.89 169.512C212.373 173.189 210.035 175.111 207.69 179.71C205.345 184.31 206.101 190.415 206.524 192.67C206.941 194.925 207.697 199.275 208.113 201.447C208.529 203.625 209.638 208.788 212.706 211.985C217.005 216.463 220.9 218.007 220.9 218.007C220.9 218.007 224.058 222.901 231.688 225.701C241.72 229.378 246.237 224.029 250.08 222.607C253.924 221.184 258.524 221.101 262.457 218.34C266.384 215.579 270.734 212.235 273.578 205.214C276.423 198.192 275.833 195.098 275.917 193.343C276 191.588 275.75 183.144 272.489 177.961C269.229 172.779 265.308 169.665 263.796 168.679C260.452 166.507 248.511 161.312 245.506 160.729C242.495 160.146 231.758 161.055 227.498 162.811C223.238 164.566 216.89 169.512 216.89 169.512Z" fill="url(#paint5_radial_256_2)"/>
<path d="M235.948 202.638C235.237 202.414 234.487 201.357 234.308 199.095C234.058 195.873 236.435 194.982 236.435 194.982C236.435 194.982 239.267 194.233 241.259 193.522C243.11 192.862 244.443 192.016 244.443 192.016C244.443 192.016 244.622 188.563 245.769 187.545C246.922 186.526 248.953 186.616 251.214 186.879C253.469 187.141 257.102 188.647 256.57 190.018C256.038 191.389 255.417 192.76 253.251 194.002C251.086 195.239 249.536 196.392 248.427 197.366C247.319 198.346 245.288 199.576 241.925 200.819C238.562 202.061 236.973 202.958 235.948 202.638ZM216.902 173.816C214.775 173.381 211.771 177.987 211.214 179.511C210.65 181.036 210.073 184.752 210.009 186.449C209.926 188.557 209.887 190.537 210.772 192.145C211.451 193.387 213.097 194.086 214.577 192.804C216.057 191.523 218.626 188.012 219.305 187.519C219.984 187.026 221.97 186.372 221.188 183.144C220.868 181.824 217.62 179.095 217.46 178.723C217.306 178.358 218.107 174.066 216.902 173.816ZM231.938 168.031C232.021 169.268 233.033 171.247 234.129 172.317C235.769 173.912 243.29 179.306 245.237 178.999C247.185 178.691 249.305 175.194 249.927 174.22C250.548 173.246 251.784 171.875 252.271 171.254C252.758 170.632 254.039 169.217 252.982 167.801C251.919 166.385 249.267 165.456 247.499 165.322C245.73 165.187 242.982 164.04 240.637 164.13C238.293 164.22 231.72 164.841 231.938 168.031ZM262.893 184.527C263.04 185.873 264.93 186.167 266.435 187.141C267.941 188.115 268.96 189.134 269.844 188.865C270.728 188.602 271.932 187.186 271.657 184.707C271.304 181.523 269.312 177.449 266.525 177.583C264.84 177.666 265.071 180.594 265.071 180.594C265.071 180.594 262.803 183.733 262.893 184.527Z" fill="#FFC86E"/>
<path d="M226.46 176.225C226.46 176.225 220.419 176.186 220.528 176.789C220.643 177.391 221.168 179.377 222.744 179.454C224.32 179.531 226.351 179.678 227.325 179.377C228.299 179.076 231.002 176.898 231.002 175.924C231.002 174.95 229.913 173.521 229.913 173.521L226.46 176.225ZM235.089 187.301C235.089 187.301 235.019 187.346 234.916 187.429C234.615 187.679 234.039 188.262 234.263 188.916C234.564 189.781 236.326 191.395 238.055 191.395C239.785 191.395 240.72 189.781 241.021 188.73C241.323 187.679 241.169 187.039 241.169 187.039L235.089 187.301ZM221.617 192.221C221.617 192.221 220.566 192.599 220.605 193.272C220.643 193.945 220.906 195.187 222.258 196.501C223.622 197.827 225.602 198.192 227.402 197.705C229.202 197.218 230.515 195.866 230.368 194.066C230.221 192.266 228.491 190.876 228.491 190.876L221.617 192.221ZM213.846 202.17C213.846 202.17 212.719 202.433 212.834 203.182C212.949 203.932 214.224 206.296 216.248 206.033C218.273 205.771 221.47 203.445 221.47 202.542C221.47 201.639 219.855 200.441 219.855 200.441L213.846 202.17ZM227.658 211.555C227.658 211.555 227.242 213.977 230.509 214.861C235.954 216.328 236.518 213.022 236.518 213.022L227.658 211.555ZM249.048 212.676C249.048 212.676 247.588 214.137 249.247 215.284C250.906 216.431 252.796 216.821 254.577 216.623C256.358 216.424 257.575 215.002 257.575 215.002L249.048 212.676ZM262.681 196.456C262.681 196.456 259.926 197.846 262.06 200.248C263.68 202.081 267.39 201.709 268.908 200.678C269.901 200.005 270.196 198.813 269.824 198.211C269.446 197.609 262.681 196.456 262.681 196.456ZM252.021 180.543C252.021 180.543 251.874 183.688 256.115 183.586C262.047 183.438 261.297 179.755 261.297 179.755L252.021 180.543Z" fill="#CF701E"/>
<path d="M254.763 176.603C254.763 176.603 251.983 178.333 251.682 179.044C251.381 179.755 250.74 182.01 253.969 181.863C257.198 181.716 260.426 181.6 261.515 180.287C262.604 178.974 262.342 177.769 261.893 176.796C261.445 175.822 258.921 172.138 256.916 172.183C255.602 172.209 254.763 176.603 254.763 176.603Z" fill="#593329"/>
<path d="M256.903 172.17C256.903 172.17 255.141 171.946 253.597 174.688C252.06 177.43 251.663 179.064 251.663 179.064C251.663 179.064 254.795 179.076 256.672 178.852C258.549 178.628 259.824 177.462 259.824 177.462C259.824 177.462 258.293 172.51 256.903 172.17Z" fill="#925849"/>
<path d="M235.583 184.976C235.583 184.976 234.045 184.874 233.93 185.47C233.814 186.072 234.154 187.603 234.679 188.276C235.205 188.948 236.781 190.454 238.356 190.153C239.932 189.852 240.868 188.308 241.13 187.776C241.367 187.276 241.624 186.738 241.175 186.066C240.72 185.386 235.583 184.976 235.583 184.976Z" fill="#593329"/>
<path d="M237.87 182.574C236.563 182.433 233.411 184.938 233.975 185.796C234.603 186.738 234.712 186.142 236.441 187.007C237.87 187.718 238.491 188.378 239.388 188.263C240.285 188.148 241.355 186.668 241.169 186.065C240.983 185.463 239.638 182.76 237.87 182.574Z" fill="#925849"/>
<path d="M223.078 172.433L220.003 174.56C220.003 174.56 219.887 176.001 220.528 176.789C221.169 177.577 221.354 178.064 224.359 178.064C227.363 178.064 230.176 177.654 230.701 175.514C231.226 173.375 230.304 172.004 229.74 171.216C229.176 170.428 223.078 172.433 223.078 172.433Z" fill="#593329"/>
<path d="M223.116 169.095C222.425 169.39 220.791 171.613 220.413 172.586C220.035 173.56 219.952 174.598 220.003 174.611C220.624 174.765 224.282 175.104 225.897 174.841C227.511 174.579 228.824 173.868 229.35 172.926C229.766 172.176 229.734 171.183 229.734 171.183C229.734 171.183 228.639 169.21 227.133 168.608C225.634 168.006 223.379 168.98 223.116 169.095Z" fill="#925949"/>
<path d="M220.541 192.363C220.541 192.363 220.285 192.754 220.772 193.503C221.259 194.253 222.213 195.15 223.642 195.566C225.07 195.976 226.082 196.54 227.018 196.431C227.959 196.316 229.798 195.566 229.869 192.978C229.945 190.39 229.42 189.186 228.293 188.058C227.165 186.931 226.351 187.123 226.351 187.123L220.541 192.363Z" fill="#593329"/>
<path d="M220.868 189.966C220.47 190.633 220.176 192.798 220.663 193.285C221.149 193.772 224.077 193.804 224.846 193.72C225.621 193.637 228.151 192.446 228.19 191.542C228.228 190.639 227.741 189.441 227.741 188.993C227.741 188.544 228.305 187.494 226.768 187.116C225.23 186.738 221.688 188.576 220.868 189.966Z" fill="#925849"/>
<path d="M215.794 199.692C215.794 199.692 213.379 200.288 213.225 201.114C213.078 201.94 213.424 202.773 214.25 203.561C215.076 204.349 215.679 205.176 216.313 205.099C216.953 205.022 218.638 203.523 219.164 203.036C219.689 202.549 220.438 201.684 220.368 200.973C220.297 200.262 219.99 199.545 219.317 198.981C218.651 198.417 215.794 199.692 215.794 199.692Z" fill="#593329"/>
<path d="M216.396 197.552C215.269 197.577 214.404 198.942 214.032 199.429C213.654 199.915 213.02 201.081 213.283 201.267C213.545 201.453 214.634 201.568 215.16 201.908C215.685 202.247 216.473 202.773 217.075 202.286C217.677 201.799 218.203 200.447 218.504 199.999C218.805 199.55 219.33 198.987 219.33 198.987C219.33 198.987 218.196 197.513 216.396 197.552Z" fill="#925849"/>
<path d="M230.176 206.598C229.952 206.86 226.761 209.449 226.761 209.449C226.761 209.449 226.877 211.704 227.588 212.229C228.299 212.754 230.515 213.504 231.944 213.805C233.372 214.106 235.922 214.445 236.563 214.183C237.203 213.92 237.876 212.53 237.915 210.73C237.953 208.93 237.312 207.584 236.601 206.758C235.89 205.932 235.32 205.624 235.32 205.624L230.176 206.598Z" fill="#593329"/>
<path d="M234.417 209.973C234.834 209.506 235.32 205.617 235.32 205.617C235.32 205.617 232.431 203.4 231.227 203.253C230.022 203.106 228.6 203.215 228.184 203.663C227.774 204.112 226.159 205.726 226.307 206.777C226.454 207.827 226.755 209.442 226.755 209.442C226.755 209.442 233.552 210.953 234.417 209.973Z" fill="#925849"/>
<path d="M248.421 211.825C248.421 211.825 248.055 214.259 250.733 214.721C253.411 215.176 255.634 215.784 256.794 215.541C257.953 215.297 259.106 213.747 259.228 212.619C259.35 211.492 259.414 209.865 259.228 209.423C258.741 208.25 256.486 205.041 255.391 204.701C254.776 204.516 254.193 204.618 254.193 204.618L248.421 211.825Z" fill="#593329"/>
<path d="M250.157 207.558C248.959 208.884 248.344 210.8 248.408 211.812C248.472 212.767 253.014 212.35 253.553 212.024C254.091 211.697 255.263 210.236 255.301 209.749C255.34 209.262 254.968 207.738 254.904 206.796C254.84 205.854 254.815 204.573 254.296 204.605C253.777 204.637 251.861 205.675 250.157 207.558Z" fill="#925849"/>
<path d="M265.519 191.03C265.519 191.03 266.576 191.184 267.877 191.966C269.395 192.875 270.984 195.194 270.862 197.084C270.74 198.974 269.094 199.826 267.089 199.858C265.084 199.89 263.123 199.781 262.758 198.743C262.393 197.706 265.519 191.03 265.519 191.03Z" fill="#593329"/>
<path d="M263.918 191.664C263.604 192.1 262.79 193.432 262.515 195.136C262.239 196.84 262.425 198.788 263.033 199.127C263.642 199.46 266.993 196.571 267.172 196.264C267.358 195.956 266.102 191.299 265.705 191.087C265.308 190.876 264.315 191.119 263.918 191.664Z" fill="#925849"/>
<defs>
<radialGradient id="paint0_radial_256_2" cx="0" cy="0" r="1" gradientUnits="userSpaceOnUse" gradientTransform="translate(246.104 -13.6737) scale(100.663)">
<stop offset="0.447" stop-color="#FCC216"/>
<stop offset="0.59" stop-color="#FABB16"/>
<stop offset="0.794" stop-color="#F3A814"/>
<stop offset="0.921" stop-color="#ED9913"/>
</radialGradient>
<radialGradient id="paint1_radial_256_2" cx="0" cy="0" r="1" gradientUnits="userSpaceOnUse" gradientTransform="translate(150.637 69.8097) rotate(89.3583) scale(62.2758 108.514)">
<stop offset="0.517" stop-color="#DF8016"/>
<stop offset="0.643" stop-color="#E58C21"/>
<stop offset="1" stop-color="#F5AC3C"/>
</radialGradient>
<radialGradient id="paint2_radial_256_2" cx="0" cy="0" r="1" gradientUnits="userSpaceOnUse" gradientTransform="translate(240.999 193.757) scale(34.0825)">
<stop offset="0.507" stop-color="#F29F58"/>
<stop offset="0.715" stop-color="#F09D56"/>
<stop offset="0.826" stop-color="#EB9550"/>
<stop offset="0.914" stop-color="#E18745"/>
<stop offset="0.99" stop-color="#D47436"/>
<stop offset="1" stop-color="#D27133"/>
</radialGradient>
<radialGradient id="paint3_radial_256_2" cx="0" cy="0" r="1" gradientUnits="userSpaceOnUse" gradientTransform="translate(246.104 -13.6737) scale(100.663)">
<stop offset="0.447" stop-color="#FCC216"/>
<stop offset="0.59" stop-color="#FABB16"/>
<stop offset="0.794" stop-color="#F3A814"/>
<stop offset="0.921" stop-color="#ED9913"/>
</radialGradient>
<radialGradient id="paint4_radial_256_2" cx="0" cy="0" r="1" gradientUnits="userSpaceOnUse" gradientTransform="translate(150.637 69.8097) rotate(89.3583) scale(62.2758 108.514)">
<stop offset="0.517" stop-color="#DF8016"/>
<stop offset="0.643" stop-color="#E58C21"/>
<stop offset="1" stop-color="#F5AC3C"/>
</radialGradient>
<radialGradient id="paint5_radial_256_2" cx="0" cy="0" r="1" gradientUnits="userSpaceOnUse" gradientTransform="translate(240.999 193.757) scale(34.0825)">
<stop offset="0.507" stop-color="#F29F58"/>
<stop offset="0.715" stop-color="#F09D56"/>
<stop offset="0.826" stop-color="#EB9550"/>
<stop offset="0.914" stop-color="#E18745"/>
<stop offset="0.99" stop-color="#D47436"/>
<stop offset="1" stop-color="#D27133"/>
</radialGradient>
</defs>
</svg>
