<svg width="56" height="52" viewBox="0 0 56 52" fill="none" xmlns="http://www.w3.org/2000/svg">
<path d="M54.6422 6.74187C54.3719 6.43083 54.038 6.18135 53.6631 6.01025C53.2881 5.83915 52.8809 5.75041 52.4687 5.75H12.7391L12.1785 2.4035C12.0669 1.73218 11.7208 1.12222 11.2017 0.682121C10.6826 0.242019 10.0243 0.000313286 9.34375 0H2.875C2.1125 0 1.38123 0.302901 0.842068 0.842068C0.302901 1.38123 0 2.1125 0 2.875C0 3.6375 0.302901 4.36876 0.842068 4.90793C1.38123 5.4471 2.1125 5.75 2.875 5.75H6.90862L12.2561 37.8465L12.3855 38.203L12.5407 38.6371L12.8857 39.1517L13.1589 39.4737L13.7137 39.8475L14.0357 40.0344C14.3701 40.1741 14.7285 40.2474 15.0909 40.25H46.7187C47.4812 40.25 48.2125 39.9471 48.7517 39.4079C49.2908 38.8688 49.5937 38.1375 49.5937 37.375C49.5937 36.6125 49.2908 35.8812 48.7517 35.3421C48.2125 34.8029 47.4812 34.5 46.7187 34.5H17.5289L17.0516 31.625H49.5937C50.2856 31.6251 50.9542 31.3757 51.4771 30.9226C51.9999 30.4695 52.3418 29.8431 52.44 29.1583L55.315 9.03325C55.3732 8.62542 55.3433 8.20985 55.2272 7.81457C55.1112 7.41929 54.9117 7.0535 54.6422 6.74187ZM49.1539 11.5L48.3345 17.25H38.0937V11.5H49.1539ZM35.2187 11.5V17.25H26.5937V11.5H35.2187ZM35.2187 20.125V25.875H26.5937V20.125H35.2187ZM23.7187 11.5V17.25H15.0937L14.6682 17.3362L13.6965 11.5H23.7187ZM15.134 20.125H23.7187V25.875H16.0914L15.134 20.125ZM38.0937 25.875V20.125H47.9205L47.1011 25.875H38.0937Z" fill="#FCFCFC"/>
<path d="M19.4062 51.75C21.788 51.75 23.7188 49.8192 23.7188 47.4375C23.7188 45.0558 21.788 43.125 19.4062 43.125C17.0245 43.125 15.0938 45.0558 15.0938 47.4375C15.0938 49.8192 17.0245 51.75 19.4062 51.75Z" fill="#FCFCFC"/>
<path d="M45.2812 51.75C47.663 51.75 49.5938 49.8192 49.5938 47.4375C49.5938 45.0558 47.663 43.125 45.2812 43.125C42.8995 43.125 40.9688 45.0558 40.9688 47.4375C40.9688 49.8192 42.8995 51.75 45.2812 51.75Z" fill="#FCFCFC"/>
</svg>
