<svg width="57" height="50" viewBox="0 0 57 50" fill="none" xmlns="http://www.w3.org/2000/svg">
<path d="M56.2773 6.5325C55.9989 6.23111 55.655 5.98938 55.2688 5.8236C54.8827 5.65781 54.4633 5.57183 54.0388 5.57143H13.1203L12.5429 2.32886C12.428 1.67839 12.0715 1.08737 11.5369 0.660938C11.0023 0.234503 10.3242 0.000303557 9.62335 0H2.96103C2.17572 0 1.42257 0.293494 0.867266 0.815917C0.311965 1.33834 0 2.0469 0 2.78571C0 3.52453 0.311965 4.23309 0.867266 4.75551C1.42257 5.27793 2.17572 5.57143 2.96103 5.57143H7.11536L12.6229 36.6711L12.7561 37.0166L12.916 37.4372L13.2713 37.9359L13.5526 38.2479L14.1241 38.61L14.4557 38.7911C14.8001 38.9265 15.1692 38.9974 15.5424 39H48.1167C48.9021 39 49.6552 38.7065 50.2105 38.1841C50.7658 37.6617 51.0778 36.9531 51.0778 36.2143C51.0778 35.4755 50.7658 34.7669 50.2105 34.2445C49.6552 33.7221 48.9021 33.4286 48.1167 33.4286H18.0534L17.5619 30.6429H51.0778C51.7903 30.6429 52.479 30.4013 53.0174 29.9623C53.5559 29.5232 53.908 28.9163 54.0092 28.2527L56.9702 8.75272C57.0302 8.35755 56.9994 7.95488 56.8798 7.57188C56.7603 7.18888 56.5549 6.83444 56.2773 6.5325V6.5325ZM50.6247 11.1429L49.7808 16.7143H39.2337V11.1429H50.6247ZM36.2726 11.1429V16.7143H27.3895V11.1429H36.2726ZM36.2726 19.5V25.0714H27.3895V19.5H36.2726ZM24.4285 11.1429V16.7143H15.5454L15.1072 16.7979L14.1063 11.1429H24.4285ZM15.5869 19.5H24.4285V25.0714H16.5729L15.5869 19.5V19.5ZM39.2337 25.0714V19.5H49.3544L48.5106 25.0714H39.2337Z" fill="#FCFCFC"/>
<path d="M19.5 50C21.9853 50 24 47.9853 24 45.5C24 43.0147 21.9853 41 19.5 41C17.0147 41 15 43.0147 15 45.5C15 47.9853 17.0147 50 19.5 50Z" fill="#FCFCFC"/>
<path d="M48 50C50.2091 50 52 47.9853 52 45.5C52 43.0147 50.2091 41 48 41C45.7909 41 44 43.0147 44 45.5C44 47.9853 45.7909 50 48 50Z" fill="#FCFCFC"/>
</svg>
