<svg width="115" height="97" viewBox="0 0 115 97" fill="none" xmlns="http://www.w3.org/2000/svg">
<g filter="url(#filter0_d_136_21)">
<path d="M99.6083 14.0318C96.1292 15.558 92.3917 16.5893 88.4625 17.0554C92.5167 14.6538 95.5498 10.8739 96.9958 6.42114C93.1869 8.66097 89.0181 10.2376 84.6708 11.0824C81.7474 7.99221 77.8753 5.94398 73.6555 5.25572C69.4358 4.56745 65.1046 5.27765 61.3343 7.27606C57.5641 9.27446 54.5657 12.4493 52.8048 16.3075C51.0439 20.1658 50.6189 24.4917 51.5958 28.6136C43.8779 28.23 36.3276 26.244 29.4351 22.7846C22.5426 19.3252 16.4618 14.4697 11.5875 8.53314C9.92083 11.3794 8.9625 14.6794 8.9625 18.1939C8.96064 21.3577 9.74764 24.4731 11.2537 27.2637C12.7597 30.0542 14.9382 32.4335 17.5958 34.1906C14.5137 34.0935 11.4995 33.269 8.80417 31.7858V32.0333C8.80386 36.4707 10.3543 40.7716 13.1924 44.2061C16.0306 47.6407 19.9815 49.9973 24.375 50.8763C21.5158 51.6423 18.5181 51.7552 15.6083 51.2063C16.8479 55.0244 19.2625 58.3632 22.514 60.7553C25.7656 63.1474 29.6913 64.473 33.7417 64.5465C26.866 69.8901 18.3745 72.7886 9.63333 72.7759C8.08492 72.7763 6.53782 72.6868 5 72.5078C13.8728 78.1556 24.2014 81.153 34.75 81.1414C70.4583 81.1414 89.9792 51.8621 89.9792 26.4686C89.9792 25.6436 89.9583 24.8104 89.9208 23.9854C93.7179 21.2669 96.9955 17.9006 99.6 14.0441L99.6083 14.0318Z" fill="#1F1F1F"/>
</g>
<defs>
<filter id="filter0_d_136_21" x="0" y="0" width="114.608" height="96.1416" filterUnits="userSpaceOnUse" color-interpolation-filters="sRGB">
<feFlood flood-opacity="0" result="BackgroundImageFix"/>
<feColorMatrix in="SourceAlpha" type="matrix" values="0 0 0 0 0 0 0 0 0 0 0 0 0 0 0 0 0 0 127 0" result="hardAlpha"/>
<feOffset dx="5" dy="5"/>
<feGaussianBlur stdDeviation="5"/>
<feComposite in2="hardAlpha" operator="out"/>
<feColorMatrix type="matrix" values="0 0 0 0 0 0 0 0 0 0 0 0 0 0 0 0 0 0 0.25 0"/>
<feBlend mode="normal" in2="BackgroundImageFix" result="effect1_dropShadow_136_21"/>
<feBlend mode="normal" in="SourceGraphic" in2="effect1_dropShadow_136_21" result="shape"/>
</filter>
</defs>
</svg>
