<svg width="95" height="77" viewBox="0 0 95 77" fill="none" xmlns="http://www.w3.org/2000/svg">
<g filter="url(#filter0_i_166_67)">
<path d="M94.6083 9.03176C91.1292 10.558 87.3917 11.5893 83.4625 12.0554C87.5167 9.65378 90.5498 5.87394 91.9958 1.42114C88.1869 3.66097 84.0181 5.23757 79.6708 6.08239C76.7474 2.99221 72.8753 0.943984 68.6555 0.255719C64.4358 -0.432547 60.1046 0.277653 56.3343 2.27606C52.5641 4.27446 49.5657 7.44926 47.8048 11.3075C46.0439 15.1658 45.6189 19.4917 46.5958 23.6136C38.8779 23.23 31.3276 21.244 24.4351 17.7846C17.5426 14.3252 11.4618 9.46968 6.5875 3.53314C4.92083 6.37939 3.9625 9.67939 3.9625 13.1939C3.96064 16.3577 4.74764 19.4731 6.25366 22.2637C7.75969 25.0542 9.93817 27.4335 12.5958 29.1906C9.51365 29.0935 6.49947 28.269 3.80417 26.7858V27.0333C3.80386 31.4707 5.3543 35.7716 8.19243 39.2061C11.0306 42.6407 14.9815 44.9973 19.375 45.8763C16.5158 46.6423 13.5181 46.7552 10.6083 46.2063C11.8479 50.0244 14.2625 53.3632 17.514 55.7553C20.7656 58.1474 24.6913 59.473 28.7417 59.5465C21.866 64.8901 13.3745 67.7886 4.63333 67.7759C3.08492 67.7763 1.53782 67.6868 0 67.5078C8.87282 73.1556 19.2014 76.153 29.75 76.1414C65.4583 76.1414 84.9792 46.8621 84.9792 21.4686C84.9792 20.6436 84.9583 19.8104 84.9208 18.9854C88.7179 16.2669 91.9955 12.9006 94.6 9.04414L94.6083 9.03176Z" fill="#DADADA"/>
</g>
<defs>
<filter id="filter0_i_166_67" x="0" y="0" width="99.6083" height="81.1416" filterUnits="userSpaceOnUse" color-interpolation-filters="sRGB">
<feFlood flood-opacity="0" result="BackgroundImageFix"/>
<feBlend mode="normal" in="SourceGraphic" in2="BackgroundImageFix" result="shape"/>
<feColorMatrix in="SourceAlpha" type="matrix" values="0 0 0 0 0 0 0 0 0 0 0 0 0 0 0 0 0 0 127 0" result="hardAlpha"/>
<feOffset dx="5" dy="5"/>
<feGaussianBlur stdDeviation="5"/>
<feComposite in2="hardAlpha" operator="arithmetic" k2="-1" k3="1"/>
<feColorMatrix type="matrix" values="0 0 0 0 0 0 0 0 0 0 0 0 0 0 0 0 0 0 0.25 0"/>
<feBlend mode="normal" in2="shape" result="effect1_innerShadow_166_67"/>
</filter>
</defs>
</svg>
